<svg width="17" height="17" viewBox="0 0 17 17" fill="none" xmlns="http://www.w3.org/2000/svg">
<path d="M15.4507 1.47923C15.8024 1.83101 16 2.30807 16 2.80549C16 3.30292 15.8024 3.77997 15.4507 4.13176C15.8525 5.25367 15.9412 6.46376 15.7076 7.6323C15.474 8.80083 14.9267 9.88374 14.1245 10.7649L12.1342 12.7534C11.7717 13.2157 11.5228 13.7567 11.4077 14.3327C11.2925 14.9088 11.3142 15.5039 11.471 16.07L0.859985 5.45989C1.42599 5.61658 2.02087 5.63821 2.59675 5.52303C3.17264 5.40785 3.71344 5.15909 4.17564 4.79676L6.16503 2.80549C7.04623 2.00328 8.12915 1.45602 9.29768 1.22238C10.4662 0.988734 11.6763 1.07753 12.7982 1.47923C13.15 1.12755 13.6271 0.929993 14.1245 0.929993C14.6219 0.929993 15.099 1.12755 15.4507 1.47923V1.47923Z" stroke="white" stroke-width="1.5" stroke-linecap="round" stroke-linejoin="round"/>
<path d="M4.17565 8.77457L3.51252 9.4377C2.98478 9.96544 2.68829 10.6812 2.68829 11.4276C2.68829 12.1739 2.98478 12.8897 3.51252 13.4174C4.04027 13.9452 4.75604 14.2417 5.50238 14.2417C6.24873 14.2417 6.9645 13.9452 7.49225 13.4174L8.15538 12.7543" stroke="white" stroke-width="1.5" stroke-linecap="round" stroke-linejoin="round"/>
</svg>
