<!-- sample rectangle -->
<svg width="327" height="346" viewBox="0 0 327 346" fill="none" xmlns="http://www.w3.org/2000/svg">
<path d="M82.4636 73.7333C26.4958 119.565 42.8863 172.154 58.0776 192.719C76.7335 206.073 117.244 229.416 130.036 215.955C146.027 199.129 211.589 230.778 253.965 204.337C296.341 177.896 287.945 163.073 261.161 91.7614C234.376 20.4501 219.985 55.7052 174.411 24.0557C128.837 -7.59366 152.423 16.4439 82.4636 73.7333Z" fill="url(#paint0_linear_33_652)"/>
<path d="M191.4 108.452C194.676 109.31 202.048 110.741 202.048 117.897C202.048 125.052 189.66 162.788 197.85 170.802C206.04 178.816 213.036 178.339 219.043 173.759C223.848 170.096 221.5 155.172 221.5 151.452" stroke="black" stroke-width="0.4"/>
<path d="M122.411 137.385V177.771H150.704V137.385C150.704 137.095 150.611 136.812 150.439 136.578C150.267 136.344 150.024 136.172 149.747 136.086C149.616 136.043 149.479 136.022 149.341 136.023H123.777C123.598 136.023 123.421 136.058 123.255 136.126C123.089 136.194 122.939 136.295 122.812 136.421C122.685 136.548 122.584 136.698 122.515 136.863C122.447 137.029 122.411 137.206 122.411 137.385ZM133.452 151.262C133.46 150.466 133.781 149.705 134.347 149.144C134.912 148.584 135.676 148.27 136.473 148.27C137.269 148.27 138.033 148.584 138.598 149.144C139.164 149.705 139.486 150.466 139.493 151.262V155.948C139.489 156.746 139.169 157.511 138.603 158.074C138.037 158.637 137.271 158.953 136.473 158.953C135.674 158.953 134.908 158.637 134.342 158.074C133.777 157.511 133.457 156.746 133.452 155.948V151.262Z" fill="#5F607E"/>
<path d="M77.9029 76.54V150.278C77.9037 151.218 78.2773 152.119 78.9417 152.783C79.6062 153.448 80.5072 153.821 81.4469 153.822H190.719C191.659 153.821 192.56 153.448 193.224 152.783C193.888 152.119 194.262 151.218 194.263 150.278V76.54C194.261 75.6012 193.886 74.7015 193.222 74.0379C192.558 73.3744 191.658 73.0012 190.719 73H81.4469C80.508 73.0012 79.6079 73.3744 78.9436 74.0379C78.2794 74.7015 77.9052 75.6012 77.9029 76.54Z" fill="#5F607E"/>
<path d="M80.4664 77.457V149.368C80.4673 149.87 80.6671 150.351 81.0221 150.706C81.3771 151.061 81.8584 151.261 82.3604 151.262H189.809C190.311 151.261 190.793 151.061 191.148 150.706C191.503 150.351 191.702 149.87 191.703 149.368V77.457C191.703 76.9543 191.504 76.4722 191.149 76.1164C190.794 75.7606 190.312 75.5601 189.809 75.559H82.3604C81.8578 75.5601 81.376 75.7606 81.021 76.1164C80.6659 76.4722 80.4664 76.9543 80.4664 77.457Z" fill="white"/>
<path d="M102.376 182.056C102.485 182.193 102.624 182.304 102.782 182.379C102.941 182.455 103.114 182.494 103.289 182.493H167.214C167.389 182.493 167.562 182.454 167.72 182.378C167.877 182.303 168.016 182.194 168.126 182.058C168.237 181.922 168.315 181.763 168.356 181.593C168.397 181.424 168.4 181.247 168.364 181.075L167.372 176.362C167.331 176.17 167.242 175.991 167.114 175.842C166.986 175.692 166.823 175.578 166.639 175.508C166.507 175.455 166.365 175.429 166.222 175.429H104.278C104.135 175.429 103.993 175.455 103.86 175.508C103.677 175.578 103.513 175.692 103.385 175.842C103.258 175.991 103.169 176.17 103.128 176.362L102.136 181.075C102.1 181.246 102.103 181.423 102.145 181.593C102.187 181.762 102.265 181.921 102.376 182.056Z" fill="#5F607E"/>
<path d="M87.7597 85.4665H188.299C188.404 85.4642 188.503 85.4211 188.576 85.3464C188.649 85.2716 188.69 85.1713 188.69 85.0667C188.69 84.9622 188.649 84.8618 188.576 84.7871C188.503 84.7123 188.404 84.6692 188.299 84.6669H87.7597C87.6552 84.6692 87.5557 84.7123 87.4826 84.7871C87.4095 84.8618 87.3686 84.9622 87.3686 85.0667C87.3686 85.1713 87.4095 85.2716 87.4826 85.3464C87.5557 85.4211 87.6552 85.4642 87.7597 85.4665Z" fill="#EFEEFF"/>
<path d="M181.455 82.6249C182.749 82.6249 183.798 81.5525 183.798 80.2296C183.798 78.9067 182.749 77.8343 181.455 77.8343C180.161 77.8343 179.112 78.9067 179.112 80.2296C179.112 81.5525 180.161 82.6249 181.455 82.6249Z" fill="#FF6084"/>
<path d="M173.361 82.6249C174.655 82.6249 175.704 81.5525 175.704 80.2296C175.704 78.9067 174.655 77.8343 173.361 77.8343C172.067 77.8343 171.018 78.9067 171.018 80.2296C171.018 81.5525 172.067 82.6249 173.361 82.6249Z" fill="#FF9C37"/>
<path d="M165.266 82.6249C166.56 82.6249 167.61 81.5525 167.61 80.2296C167.61 78.9067 166.56 77.8343 165.266 77.8343C163.972 77.8343 162.923 78.9067 162.923 80.2296C162.923 81.5525 163.972 82.6249 165.266 82.6249Z" fill="#23C37D"/>
<path d="M92.2048 78.864C92.2045 78.9207 92.2154 78.9768 92.2368 79.0292C92.2583 79.0816 92.2898 79.1293 92.3297 79.1695C92.3695 79.2097 92.4169 79.2417 92.4691 79.2636C92.5214 79.2855 92.5774 79.2969 92.634 79.2972H98.3831C98.4968 79.2945 98.6049 79.2475 98.6843 79.1662C98.7637 79.0849 98.8082 78.9757 98.8082 78.8621C98.8082 78.7484 98.7637 78.6392 98.6843 78.5579C98.6049 78.4766 98.4968 78.4296 98.3831 78.4269H92.634C92.5193 78.4283 92.4097 78.4751 92.3293 78.557C92.2489 78.6389 92.2041 78.7493 92.2048 78.864Z" fill="#F6F5FE"/>
<path d="M92.2048 80.4979C92.2045 80.5545 92.2154 80.6106 92.2368 80.663C92.2583 80.7154 92.2898 80.7631 92.3297 80.8034C92.3695 80.8436 92.4169 80.8756 92.4691 80.8975C92.5214 80.9194 92.5774 80.9308 92.634 80.931H98.3831C98.4968 80.9285 98.6051 80.8815 98.6846 80.8002C98.7642 80.7189 98.8087 80.6096 98.8087 80.4959C98.8087 80.3821 98.7642 80.2729 98.6846 80.1916C98.6051 80.1102 98.4968 80.0633 98.3831 80.0608H92.634C92.5193 80.0622 92.4097 80.1089 92.3293 80.1908C92.2489 80.2727 92.2041 80.3831 92.2048 80.4979Z" fill="#F6F5FE"/>
<path d="M92.2048 82.1291C92.2041 82.2439 92.2489 82.3543 92.3293 82.4362C92.4097 82.5181 92.5193 82.5648 92.634 82.5662H98.3831C98.4968 82.5635 98.6049 82.5165 98.6843 82.4352C98.7637 82.3539 98.8082 82.2447 98.8082 82.1311C98.8082 82.0174 98.7637 81.9082 98.6843 81.8269C98.6049 81.7456 98.4968 81.6986 98.3831 81.6959H92.634C92.5774 81.6962 92.5214 81.7076 92.4691 81.7295C92.4169 81.7514 92.3695 81.7834 92.3297 81.8236C92.2898 81.8638 92.2583 81.9115 92.2368 81.9639C92.2154 82.0163 92.2045 82.0725 92.2048 82.1291Z" fill="#F6F5FE"/>
<path d="M93.9813 94.7573H91.9155C91.2892 94.7573 90.7815 95.265 90.7815 95.8914C90.7815 96.5177 91.2892 97.0254 91.9155 97.0254H93.9813C94.6076 97.0254 95.1154 96.5177 95.1154 95.8914C95.1154 95.265 94.6076 94.7573 93.9813 94.7573Z" fill="#EFEEFF"/>
<path d="M124.302 94.7573H122.236C121.61 94.7573 121.102 95.265 121.102 95.8914C121.102 96.5177 121.61 97.0254 122.236 97.0254H124.302C124.928 97.0254 125.436 96.5177 125.436 95.8914C125.436 95.265 124.928 94.7573 124.302 94.7573Z" fill="#EFEEFF"/>
<path d="M111.181 94.5684H98.3421C97.7158 94.5684 97.2081 95.0761 97.2081 95.7024C97.2081 96.3287 97.7158 96.8365 98.3421 96.8365H111.181C111.808 96.8365 112.315 96.3287 112.315 95.7024C112.315 95.0761 111.808 94.5684 111.181 94.5684Z" fill="#EFEEFF"/>
<path d="M142.683 94.5684H129.844C129.218 94.5684 128.71 95.0761 128.71 95.7024C128.71 96.3287 129.218 96.8365 129.844 96.8365H142.683C143.31 96.8365 143.817 96.3287 143.817 95.7024C143.817 95.0761 143.31 94.5684 142.683 94.5684Z" fill="#EFEEFF"/>
<path d="M100.282 99.8763H98.2159C97.5896 99.8763 97.0819 100.384 97.0819 101.01C97.0819 101.637 97.5896 102.144 98.2159 102.144H100.282C100.908 102.144 101.416 101.637 101.416 101.01C101.416 100.384 100.908 99.8763 100.282 99.8763Z" fill="#EFEEFF"/>
<path d="M123.908 99.8763H121.842C121.216 99.8763 120.708 100.384 120.708 101.01C120.708 101.637 121.216 102.144 121.842 102.144H123.908C124.534 102.144 125.042 101.637 125.042 101.01C125.042 100.384 124.534 99.8763 123.908 99.8763Z" fill="#EFEEFF"/>
<path d="M130.602 99.8763H128.536C127.91 99.8763 127.402 100.384 127.402 101.01C127.402 101.637 127.91 102.144 128.536 102.144H130.602C131.228 102.144 131.736 101.637 131.736 101.01C131.736 100.384 131.228 99.8763 130.602 99.8763Z" fill="#EFEEFF"/>
<path d="M117.482 99.6878H104.642C104.016 99.6878 103.508 100.195 103.508 100.822C103.508 101.448 104.016 101.956 104.642 101.956H117.482C118.108 101.956 118.616 101.448 118.616 100.822C118.616 100.195 118.108 99.6878 117.482 99.6878Z" fill="#EFEEFF"/>
<path d="M148.984 99.6878H136.144C135.518 99.6878 135.01 100.195 135.01 100.822C135.01 101.448 135.518 101.956 136.144 101.956H148.984C149.61 101.956 150.118 101.448 150.118 100.822C150.118 100.195 149.61 99.6878 148.984 99.6878Z" fill="#EFEEFF"/>
<path d="M130.208 104.995H128.143C127.516 104.995 127.009 105.502 127.009 106.129C127.009 106.755 127.516 107.263 128.143 107.263H130.208C130.835 107.263 131.343 106.755 131.343 106.129C131.343 105.502 130.835 104.995 130.208 104.995Z" fill="#EFEEFF"/>
<path d="M136.903 104.995H134.837C134.21 104.995 133.703 105.502 133.703 106.129C133.703 106.755 134.21 107.263 134.837 107.263H136.903C137.529 107.263 138.037 106.755 138.037 106.129C138.037 105.502 137.529 104.995 136.903 104.995Z" fill="#EFEEFF"/>
<path d="M123.782 104.806H110.943C110.316 104.806 109.809 105.314 109.809 105.94C109.809 106.566 110.316 107.074 110.943 107.074H123.782C124.408 107.074 124.916 106.566 124.916 105.94C124.916 105.314 124.408 104.806 123.782 104.806Z" fill="#EFEEFF"/>
<path d="M155.284 104.806H142.445C141.818 104.806 141.311 105.314 141.311 105.94C141.311 106.566 141.818 107.074 142.445 107.074H155.284C155.91 107.074 156.418 106.566 156.418 105.94C156.418 105.314 155.91 104.806 155.284 104.806Z" fill="#EFEEFF"/>
<path d="M112.883 110.114H110.817C110.19 110.114 109.683 110.622 109.683 111.248C109.683 111.875 110.19 112.382 110.817 112.382H112.883C113.509 112.382 114.017 111.875 114.017 111.248C114.017 110.622 113.509 110.114 112.883 110.114Z" fill="#EFEEFF"/>
<path d="M136.509 110.114H134.443C133.817 110.114 133.309 110.622 133.309 111.248C133.309 111.875 133.817 112.382 134.443 112.382H136.509C137.135 112.382 137.643 111.875 137.643 111.248C137.643 110.622 137.135 110.114 136.509 110.114Z" fill="#EFEEFF"/>
<path d="M143.203 110.114H141.137C140.511 110.114 140.003 110.622 140.003 111.248C140.003 111.875 140.511 112.382 141.137 112.382H143.203C143.829 112.382 144.337 111.875 144.337 111.248C144.337 110.622 143.829 110.114 143.203 110.114Z" fill="#EFEEFF"/>
<path d="M130.082 109.925H117.243C116.617 109.925 116.109 110.433 116.109 111.059C116.109 111.686 116.617 112.193 117.243 112.193H130.082C130.709 112.193 131.216 111.686 131.216 111.059C131.216 110.433 130.709 109.925 130.082 109.925Z" fill="#EFEEFF"/>
<path d="M117.608 130.469H115.542C114.916 130.469 114.408 130.977 114.408 131.603C114.408 132.23 114.916 132.737 115.542 132.737H117.608C118.234 132.737 118.742 132.23 118.742 131.603C118.742 130.977 118.234 130.469 117.608 130.469Z" fill="#EFEEFF"/>
<path d="M124.302 130.469H122.236C121.61 130.469 121.102 130.977 121.102 131.603C121.102 132.23 121.61 132.737 122.236 132.737H124.302C124.928 132.737 125.436 132.23 125.436 131.603C125.436 130.977 124.928 130.469 124.302 130.469Z" fill="#EFEEFF"/>
<path d="M142.683 130.658H129.844C129.218 130.658 128.71 131.166 128.71 131.792C128.71 132.419 129.218 132.926 129.844 132.926H142.683C143.31 132.926 143.817 132.419 143.817 131.792C143.817 131.166 143.31 130.658 142.683 130.658Z" fill="#EFEEFF"/>
<path d="M111.181 130.658H98.3421C97.7158 130.658 97.2081 131.166 97.2081 131.792C97.2081 132.419 97.7158 132.926 98.3421 132.926H111.181C111.808 132.926 112.315 132.419 112.315 131.792C112.315 131.166 111.808 130.658 111.181 130.658Z" fill="#EFEEFF"/>
<path d="M100.282 125.35H98.2159C97.5896 125.35 97.0819 125.858 97.0819 126.484C97.0819 127.11 97.5896 127.618 98.2159 127.618H100.282C100.908 127.618 101.416 127.11 101.416 126.484C101.416 125.858 100.908 125.35 100.282 125.35Z" fill="#EFEEFF"/>
<path d="M123.908 125.35H121.842C121.216 125.35 120.708 125.858 120.708 126.484C120.708 127.11 121.216 127.618 121.842 127.618H123.908C124.534 127.618 125.042 127.11 125.042 126.484C125.042 125.858 124.534 125.35 123.908 125.35Z" fill="#EFEEFF"/>
<path d="M130.602 125.35H128.536C127.91 125.35 127.402 125.858 127.402 126.484C127.402 127.11 127.91 127.618 128.536 127.618H130.602C131.228 127.618 131.736 127.11 131.736 126.484C131.736 125.858 131.228 125.35 130.602 125.35Z" fill="#EFEEFF"/>
<path d="M117.482 125.54H104.642C104.016 125.54 103.508 126.048 103.508 126.674C103.508 127.301 104.016 127.808 104.642 127.808H117.482C118.108 127.808 118.616 127.301 118.616 126.674C118.616 126.048 118.108 125.54 117.482 125.54Z" fill="#EFEEFF"/>
<path d="M106.582 120.232H104.516C103.89 120.232 103.382 120.739 103.382 121.366C103.382 121.992 103.89 122.5 104.516 122.5H106.582C107.208 122.5 107.716 121.992 107.716 121.366C107.716 120.739 107.208 120.232 106.582 120.232Z" fill="#EFEEFF"/>
<path d="M130.208 120.232H128.143C127.516 120.232 127.009 120.739 127.009 121.366C127.009 121.992 127.516 122.5 128.143 122.5H130.208C130.835 122.5 131.343 121.992 131.343 121.366C131.343 120.739 130.835 120.232 130.208 120.232Z" fill="#EFEEFF"/>
<path d="M136.903 120.232H134.837C134.21 120.232 133.703 120.739 133.703 121.366C133.703 121.992 134.21 122.5 134.837 122.5H136.903C137.529 122.5 138.037 121.992 138.037 121.366C138.037 120.739 137.529 120.232 136.903 120.232Z" fill="#EFEEFF"/>
<path d="M123.782 120.42H110.943C110.316 120.42 109.809 120.928 109.809 121.555C109.809 122.181 110.316 122.689 110.943 122.689H123.782C124.408 122.689 124.916 122.181 124.916 121.555C124.916 120.928 124.408 120.42 123.782 120.42Z" fill="#EFEEFF"/>
<path d="M112.883 115.112H110.817C110.19 115.112 109.683 115.62 109.683 116.246C109.683 116.873 110.19 117.38 110.817 117.38H112.883C113.509 117.38 114.017 116.873 114.017 116.246C114.017 115.62 113.509 115.112 112.883 115.112Z" fill="#EFEEFF"/>
<path d="M136.509 115.112H134.443C133.817 115.112 133.309 115.62 133.309 116.246C133.309 116.873 133.817 117.38 134.443 117.38H136.509C137.135 117.38 137.643 116.873 137.643 116.246C137.643 115.62 137.135 115.112 136.509 115.112Z" fill="#EFEEFF"/>
<path d="M143.203 115.112H141.137C140.511 115.112 140.003 115.62 140.003 116.246C140.003 116.873 140.511 117.38 141.137 117.38H143.203C143.829 117.38 144.337 116.873 144.337 116.246C144.337 115.62 143.829 115.112 143.203 115.112Z" fill="#EFEEFF"/>
<path d="M130.082 115.302H117.243C116.617 115.302 116.109 115.809 116.109 116.436C116.109 117.062 116.617 117.57 117.243 117.57H130.082C130.709 117.57 131.216 117.062 131.216 116.436C131.216 115.809 130.709 115.302 130.082 115.302Z" fill="#EFEEFF"/>
<path opacity="0.2" d="M80.0125 169.9C79.9514 168.879 79.883 167.825 79.8033 166.727C83.7962 156.756 190.938 174.409 192.745 185.97C192.74 187.03 192.695 188.059 192.619 189.063C188.242 177.652 86.4557 160.874 80.0125 169.9Z" fill="#5F607E"/>
<path d="M229.866 118.584V112.166C229.866 111.181 229.474 110.236 228.778 109.54C228.081 108.843 227.136 108.452 226.151 108.452H212.554C212.066 108.452 211.583 108.548 211.132 108.734C210.681 108.921 210.272 109.195 209.927 109.54C209.582 109.885 209.308 110.294 209.122 110.745C208.935 111.195 208.839 111.678 208.839 112.166V116.429H208.6V117.931H208.839V119.533H208.6V121.835H208.839V122.837H208.6V125.14H208.839V147.376C208.839 147.864 208.935 148.347 209.122 148.798C209.308 149.249 209.582 149.658 209.927 150.003C210.272 150.348 210.681 150.622 211.132 150.808C211.583 150.995 212.066 151.091 212.554 151.091H226.151C226.639 151.091 227.122 150.995 227.573 150.808C228.023 150.622 228.433 150.348 228.778 150.003C229.123 149.658 229.396 149.249 229.583 148.798C229.77 148.347 229.866 147.864 229.866 147.376V123.153H230.1V118.584H229.866Z" fill="#5F607E"/>
<path d="M226.301 109.418H224.526C224.608 109.619 224.639 109.836 224.617 110.051C224.595 110.266 224.52 110.472 224.4 110.651C224.279 110.831 224.116 110.978 223.926 111.079C223.735 111.181 223.522 111.234 223.306 111.234H215.516C215.3 111.234 215.087 111.181 214.896 111.079C214.706 110.978 214.543 110.831 214.422 110.651C214.302 110.472 214.227 110.266 214.205 110.051C214.183 109.836 214.214 109.619 214.296 109.418H212.638C211.902 109.418 211.197 109.711 210.677 110.231C210.156 110.751 209.864 111.457 209.864 112.192V147.351C209.864 147.715 209.936 148.076 210.075 148.412C210.215 148.749 210.419 149.055 210.677 149.312C210.934 149.57 211.24 149.774 211.577 149.914C211.913 150.053 212.274 150.125 212.638 150.125H226.301C227.037 150.125 227.742 149.833 228.263 149.312C228.783 148.792 229.075 148.087 229.075 147.351V112.192C229.075 111.828 229.003 111.467 228.864 111.131C228.725 110.794 228.52 110.489 228.263 110.231C228.005 109.973 227.699 109.769 227.363 109.63C227.026 109.49 226.665 109.418 226.301 109.418Z" fill="white"/>
<path d="M226.645 121.655H212.294C212.194 121.654 212.098 121.615 212.028 121.544C211.957 121.473 211.917 121.377 211.917 121.277V115.455C211.917 115.355 211.957 115.259 212.028 115.188C212.098 115.117 212.194 115.077 212.294 115.077H226.645C226.745 115.077 226.841 115.117 226.911 115.188C226.982 115.259 227.022 115.355 227.022 115.455V121.277C227.022 121.377 226.982 121.473 226.911 121.544C226.841 121.615 226.745 121.654 226.645 121.655Z" fill="#5F607E"/>
<path d="M225.279 124.409H213.661C213.551 124.409 213.445 124.366 213.368 124.288C213.29 124.21 213.246 124.104 213.246 123.994C213.246 123.884 213.29 123.779 213.368 123.701C213.445 123.623 213.551 123.579 213.661 123.579H225.279C225.389 123.579 225.494 123.623 225.572 123.701C225.65 123.779 225.694 123.884 225.694 123.994C225.694 124.104 225.65 124.21 225.572 124.288C225.494 124.366 225.389 124.409 225.279 124.409Z" fill="#EFEEFF"/>
<path d="M225.279 126.521H213.661C213.541 126.521 213.426 126.473 213.341 126.388C213.256 126.304 213.208 126.188 213.208 126.068C213.208 125.948 213.256 125.833 213.341 125.748C213.426 125.663 213.541 125.616 213.661 125.616H225.279C225.399 125.616 225.514 125.663 225.599 125.748C225.683 125.833 225.731 125.948 225.731 126.068C225.731 126.188 225.683 126.304 225.599 126.388C225.514 126.473 225.399 126.521 225.279 126.521Z" fill="#E4E4E4"/>
<path d="M225.279 128.597H213.661C213.541 128.597 213.426 128.549 213.341 128.464C213.256 128.379 213.208 128.264 213.208 128.144C213.208 128.024 213.256 127.909 213.341 127.824C213.426 127.739 213.541 127.691 213.661 127.691H225.279C225.399 127.691 225.514 127.739 225.599 127.824C225.683 127.909 225.731 128.024 225.731 128.144C225.731 128.264 225.683 128.379 225.599 128.464C225.514 128.549 225.399 128.597 225.279 128.597Z" fill="#E4E4E4"/>
<path d="M225.279 141.874H213.661C213.541 141.874 213.426 141.827 213.341 141.742C213.256 141.657 213.208 141.542 213.208 141.422C213.208 141.302 213.256 141.186 213.341 141.102C213.426 141.017 213.541 140.969 213.661 140.969H225.279C225.399 140.969 225.514 141.017 225.599 141.102C225.683 141.186 225.731 141.302 225.731 141.422C225.731 141.542 225.683 141.657 225.599 141.742C225.514 141.827 225.399 141.874 225.279 141.874Z" fill="#E4E4E4"/>
<path d="M225.279 143.948H213.661C213.541 143.948 213.426 143.901 213.341 143.816C213.256 143.731 213.208 143.616 213.208 143.496C213.208 143.376 213.256 143.261 213.341 143.176C213.426 143.091 213.541 143.043 213.661 143.043H225.279C225.399 143.043 225.514 143.091 225.599 143.176C225.683 143.261 225.731 143.376 225.731 143.496C225.731 143.616 225.683 143.731 225.599 143.816C225.514 143.901 225.399 143.948 225.279 143.948Z" fill="#E4E4E4"/>
<path d="M225.279 146.024H213.661C213.541 146.024 213.426 145.976 213.341 145.892C213.256 145.807 213.208 145.692 213.208 145.572C213.208 145.451 213.256 145.336 213.341 145.251C213.426 145.167 213.541 145.119 213.661 145.119H225.279C225.399 145.119 225.514 145.167 225.599 145.251C225.683 145.336 225.731 145.451 225.731 145.572C225.731 145.692 225.683 145.807 225.599 145.892C225.514 145.976 225.399 146.024 225.279 146.024Z" fill="#E4E4E4"/>
<path d="M228.202 121.851L226.905 123.798C226.874 123.844 226.832 123.883 226.783 123.909C226.733 123.935 226.678 123.949 226.622 123.949C226.555 123.949 226.49 123.929 226.435 123.892C226.379 123.855 226.336 123.802 226.31 123.741C226.301 123.72 226.294 123.698 226.29 123.676C226.272 123.588 226.29 123.496 226.34 123.421L227.637 121.475C227.662 121.438 227.694 121.406 227.731 121.381C227.768 121.356 227.809 121.339 227.853 121.33C227.897 121.322 227.942 121.321 227.985 121.33C228.029 121.339 228.071 121.356 228.108 121.381C228.145 121.405 228.177 121.437 228.202 121.474C228.226 121.511 228.244 121.553 228.252 121.596C228.261 121.64 228.261 121.685 228.253 121.729C228.244 121.773 228.227 121.814 228.202 121.851Z" fill="#6C63FF"/>
<path d="M227.01 123.64L226.748 124.032L226.283 124.441C226.253 124.468 226.214 124.484 226.173 124.487C226.133 124.49 226.092 124.479 226.058 124.456C226.024 124.434 225.999 124.401 225.986 124.362C225.973 124.323 225.973 124.282 225.986 124.243L226.189 123.648L226.445 123.264L227.01 123.64Z" fill="#5F607E"/>
<path d="M228.259 120.831L227.61 121.404C227.588 121.422 227.572 121.446 227.561 121.472C227.55 121.498 227.545 121.527 227.547 121.555C227.549 121.583 227.558 121.611 227.572 121.635C227.586 121.66 227.606 121.681 227.629 121.696L227.752 121.778L227.397 122.312C227.391 122.32 227.387 122.329 227.385 122.339C227.384 122.349 227.384 122.359 227.385 122.369C227.387 122.378 227.391 122.388 227.397 122.396C227.402 122.404 227.409 122.411 227.418 122.417C227.426 122.422 227.435 122.426 227.445 122.428C227.455 122.43 227.465 122.43 227.474 122.428C227.484 122.426 227.493 122.422 227.501 122.416C227.51 122.411 227.517 122.404 227.522 122.396L227.878 121.862L228.001 121.944C228.042 121.971 228.091 121.981 228.139 121.971C228.187 121.962 228.23 121.934 228.257 121.893C228.266 121.879 228.273 121.865 228.279 121.849L228.557 121.029C228.57 120.99 228.57 120.949 228.557 120.91C228.544 120.871 228.518 120.838 228.484 120.816C228.45 120.793 228.41 120.782 228.369 120.785C228.329 120.788 228.29 120.804 228.259 120.831Z" fill="#5F607E"/>
<path d="M219.979 110.076H217.942C217.902 110.076 217.863 110.06 217.835 110.031C217.807 110.003 217.791 109.965 217.791 109.925C217.791 109.885 217.807 109.846 217.835 109.818C217.863 109.79 217.902 109.774 217.942 109.774H219.979C220.019 109.774 220.057 109.79 220.085 109.818C220.114 109.846 220.13 109.885 220.13 109.925C220.13 109.965 220.114 110.003 220.085 110.031C220.057 110.06 220.019 110.076 219.979 110.076Z" fill="white"/>
<path d="M220.997 110.076C221.08 110.076 221.148 110.008 221.148 109.925C221.148 109.841 221.08 109.774 220.997 109.774C220.914 109.774 220.846 109.841 220.846 109.925C220.846 110.008 220.914 110.076 220.997 110.076Z" fill="white"/>
<path d="M222.377 136.145C222.407 136.137 222.435 136.125 222.461 136.108L225.674 134.005C225.712 133.98 225.744 133.945 225.766 133.904C225.788 133.863 225.8 133.818 225.8 133.771C225.8 133.725 225.789 133.68 225.766 133.639C225.744 133.598 225.713 133.563 225.674 133.538L222.335 131.351C222.304 131.331 222.27 131.317 222.233 131.31C222.197 131.303 222.16 131.303 222.124 131.31C222.088 131.318 222.054 131.332 222.024 131.353C221.993 131.373 221.967 131.4 221.947 131.431C221.927 131.461 221.913 131.496 221.906 131.532C221.9 131.568 221.9 131.605 221.907 131.641C221.915 131.677 221.93 131.711 221.95 131.741C221.971 131.772 221.998 131.798 222.029 131.818L225.011 133.771L222.155 135.641C222.1 135.677 222.059 135.731 222.041 135.795C222.022 135.858 222.026 135.926 222.052 135.986C222.079 136.047 222.126 136.096 222.186 136.125C222.245 136.154 222.313 136.161 222.377 136.145Z" fill="#6C63FF"/>
<path d="M216.579 136.38C216.633 136.366 216.681 136.337 216.718 136.296C216.756 136.254 216.779 136.202 216.787 136.147C216.795 136.092 216.785 136.036 216.761 135.986C216.736 135.936 216.698 135.895 216.649 135.867L213.688 134.169L216.55 132.043C216.58 132.022 216.604 131.994 216.623 131.963C216.642 131.931 216.654 131.896 216.66 131.86C216.665 131.824 216.663 131.787 216.654 131.751C216.645 131.716 216.63 131.683 216.608 131.653C216.586 131.624 216.558 131.599 216.527 131.58C216.496 131.561 216.461 131.549 216.424 131.543C216.388 131.538 216.351 131.54 216.316 131.549C216.28 131.558 216.247 131.574 216.217 131.596L213.013 133.976C212.976 134.003 212.946 134.04 212.926 134.082C212.907 134.124 212.898 134.17 212.901 134.216C212.903 134.263 212.917 134.307 212.942 134.347C212.966 134.386 213 134.419 213.04 134.442L216.371 136.352C216.434 136.388 216.509 136.398 216.579 136.38Z" fill="#6C63FF"/>
<path d="M221.691 137.989C221.718 137.982 221.744 137.971 221.767 137.956C221.799 137.937 221.826 137.912 221.848 137.883C221.869 137.853 221.885 137.819 221.894 137.784C221.902 137.748 221.904 137.711 221.898 137.675C221.893 137.639 221.88 137.604 221.861 137.573L217.307 130.085C217.268 130.022 217.206 129.977 217.134 129.96C217.062 129.943 216.987 129.955 216.924 129.993C216.861 130.032 216.815 130.093 216.798 130.165C216.78 130.237 216.792 130.313 216.83 130.376L221.384 137.863C221.415 137.914 221.461 137.954 221.517 137.976C221.572 137.999 221.633 138.003 221.691 137.989Z" fill="#6C63FF"/>
<circle cx="193.5" cy="5" r="4.5" stroke="#EDEDFF"/>
<circle cx="163.5" cy="214" r="4.5" fill="white" stroke="#EDEDFF"/>
<circle cx="95.5" cy="15" r="4.25" fill="white" stroke="#EDEDFF" stroke-width="1.5"/>
<path d="M59.6444 279V264.455H61.839V277.111H68.4299V279H59.6444ZM75.5831 279.22C74.5083 279.22 73.5826 278.991 72.8061 278.531C72.0343 278.067 71.4377 277.416 71.0163 276.578C70.5997 275.735 70.3913 274.748 70.3913 273.616C70.3913 272.499 70.5997 271.514 71.0163 270.662C71.4377 269.81 72.0249 269.144 72.7777 268.666C73.5353 268.188 74.4207 267.949 75.434 267.949C76.0495 267.949 76.6461 268.051 77.2237 268.254C77.8014 268.458 78.3198 268.777 78.7791 269.213C79.2384 269.649 79.6006 270.214 79.8658 270.911C80.1309 271.602 80.2635 272.442 80.2635 273.432V274.185H71.5916V272.594H78.1825C78.1825 272.035 78.0689 271.54 77.8416 271.109C77.6144 270.674 77.2948 270.33 76.8828 270.08C76.4756 269.829 75.9974 269.703 75.4482 269.703C74.8516 269.703 74.3307 269.85 73.8857 270.143C73.4453 270.432 73.1044 270.811 72.8629 271.28C72.6262 271.744 72.5078 272.248 72.5078 272.793V274.036C72.5078 274.765 72.6357 275.385 72.8913 275.896C73.1518 276.408 73.514 276.798 73.978 277.068C74.442 277.333 74.9841 277.466 75.6044 277.466C76.0069 277.466 76.3738 277.409 76.7053 277.295C77.0367 277.177 77.3232 277.002 77.5646 276.77C77.8061 276.538 77.9908 276.251 78.1186 275.911L80.1286 276.273C79.9676 276.865 79.6788 277.383 79.2621 277.828C78.8502 278.268 78.3317 278.612 77.7067 278.858C77.0864 279.099 76.3786 279.22 75.5831 279.22ZM87.8304 268.091V269.795H81.8716V268.091H87.8304ZM83.4696 265.477H85.5932V275.797C85.5932 276.209 85.6548 276.519 85.7779 276.727C85.901 276.931 86.0596 277.071 86.2537 277.146C86.4526 277.217 86.668 277.253 86.9 277.253C87.0705 277.253 87.2196 277.241 87.3475 277.217C87.4753 277.194 87.5748 277.175 87.6458 277.161L88.0293 278.915C87.9062 278.962 87.731 279.009 87.5037 279.057C87.2765 279.109 86.9924 279.137 86.6515 279.142C86.0927 279.152 85.5719 279.052 85.089 278.844C84.606 278.635 84.2154 278.313 83.9171 277.878C83.6188 277.442 83.4696 276.895 83.4696 276.237V265.477ZM98.2969 270.754L96.3722 271.095C96.2917 270.849 96.1638 270.615 95.9886 270.392C95.8182 270.17 95.5862 269.987 95.2926 269.845C94.999 269.703 94.6321 269.632 94.1918 269.632C93.5904 269.632 93.0885 269.767 92.6861 270.037C92.2836 270.302 92.0824 270.645 92.0824 271.067C92.0824 271.431 92.2173 271.725 92.4872 271.947C92.7571 272.17 93.1927 272.352 93.794 272.494L95.527 272.892C96.5308 273.124 97.2789 273.482 97.7713 273.964C98.2637 274.447 98.5099 275.075 98.5099 275.847C98.5099 276.5 98.3205 277.082 97.9418 277.594C97.5677 278.1 97.0445 278.498 96.3722 278.787C95.7045 279.076 94.9304 279.22 94.0497 279.22C92.8281 279.22 91.8314 278.96 91.0597 278.439C90.2879 277.913 89.8144 277.168 89.6392 276.202L91.6918 275.889C91.8196 276.424 92.0824 276.829 92.4801 277.104C92.8778 277.374 93.3963 277.509 94.0355 277.509C94.7315 277.509 95.2879 277.364 95.7045 277.075C96.1212 276.782 96.3295 276.424 96.3295 276.003C96.3295 275.662 96.2017 275.375 95.946 275.143C95.6951 274.911 95.3092 274.736 94.7883 274.618L92.9418 274.213C91.9238 273.981 91.1709 273.612 90.6832 273.105C90.2003 272.598 89.9588 271.957 89.9588 271.18C89.9588 270.536 90.1387 269.973 90.4986 269.49C90.8584 269.007 91.3556 268.631 91.9901 268.361C92.6245 268.086 93.3513 267.949 94.1704 267.949C95.3494 267.949 96.2775 268.205 96.9545 268.716C97.6316 269.223 98.0791 269.902 98.2969 270.754ZM106.545 279V264.455H108.669V269.859H108.796C108.92 269.632 109.097 269.369 109.329 269.071C109.561 268.773 109.883 268.512 110.295 268.29C110.707 268.062 111.252 267.949 111.929 267.949C112.809 267.949 113.595 268.171 114.287 268.616C114.978 269.062 115.52 269.703 115.913 270.541C116.311 271.379 116.51 272.388 116.51 273.567C116.51 274.746 116.313 275.757 115.92 276.599C115.527 277.437 114.987 278.084 114.301 278.538C113.614 278.988 112.831 279.213 111.95 279.213C111.287 279.213 110.745 279.102 110.323 278.879C109.907 278.657 109.58 278.396 109.343 278.098C109.107 277.8 108.924 277.535 108.796 277.303H108.619V279H106.545ZM108.626 273.545C108.626 274.312 108.737 274.985 108.96 275.562C109.182 276.14 109.504 276.592 109.926 276.919C110.347 277.241 110.863 277.402 111.474 277.402C112.109 277.402 112.639 277.234 113.065 276.898C113.491 276.557 113.813 276.095 114.031 275.513C114.253 274.93 114.365 274.275 114.365 273.545C114.365 272.826 114.256 272.179 114.038 271.607C113.825 271.034 113.503 270.581 113.072 270.25C112.646 269.919 112.113 269.753 111.474 269.753C110.859 269.753 110.338 269.911 109.912 270.229C109.49 270.546 109.171 270.989 108.953 271.557C108.735 272.125 108.626 272.788 108.626 273.545ZM125.923 274.476V268.091H128.054V279H125.966V277.111H125.852C125.601 277.693 125.199 278.179 124.645 278.567C124.095 278.95 123.411 279.142 122.592 279.142C121.891 279.142 121.271 278.988 120.731 278.68C120.196 278.368 119.775 277.906 119.467 277.295C119.164 276.685 119.013 275.929 119.013 275.03V268.091H121.136V274.774C121.136 275.518 121.342 276.109 121.754 276.55C122.166 276.99 122.701 277.21 123.359 277.21C123.757 277.21 124.152 277.111 124.545 276.912C124.943 276.713 125.272 276.412 125.532 276.01C125.798 275.607 125.928 275.096 125.923 274.476ZM131.026 279V268.091H133.149V279H131.026ZM132.098 266.408C131.729 266.408 131.411 266.285 131.146 266.038C130.886 265.787 130.756 265.489 130.756 265.143C130.756 264.793 130.886 264.495 131.146 264.249C131.411 263.998 131.729 263.872 132.098 263.872C132.467 263.872 132.782 263.998 133.043 264.249C133.308 264.495 133.44 264.793 133.44 265.143C133.44 265.489 133.308 265.787 133.043 266.038C132.782 266.285 132.467 266.408 132.098 266.408ZM138.248 264.455V279H136.124V264.455H138.248ZM146.316 268.091V269.795H140.357V268.091H146.316ZM141.955 265.477H144.078V275.797C144.078 276.209 144.14 276.519 144.263 276.727C144.386 276.931 144.545 277.071 144.739 277.146C144.938 277.217 145.153 277.253 145.385 277.253C145.556 277.253 145.705 277.241 145.833 277.217C145.961 277.194 146.06 277.175 146.131 277.161L146.514 278.915C146.391 278.962 146.216 279.009 145.989 279.057C145.762 279.109 145.478 279.137 145.137 279.142C144.578 279.152 144.057 279.052 143.574 278.844C143.091 278.635 142.701 278.313 142.402 277.878C142.104 277.442 141.955 276.895 141.955 276.237V265.477ZM159.386 268.091V269.795H153.222V268.091H159.386ZM154.912 279V266.827C154.912 266.145 155.061 265.579 155.359 265.129C155.658 264.675 156.053 264.336 156.545 264.114C157.038 263.886 157.573 263.773 158.15 263.773C158.577 263.773 158.941 263.808 159.244 263.879C159.547 263.946 159.772 264.007 159.919 264.064L159.422 265.783C159.322 265.754 159.195 265.721 159.038 265.683C158.882 265.641 158.693 265.619 158.47 265.619C157.954 265.619 157.585 265.747 157.362 266.003C157.144 266.259 157.035 266.628 157.035 267.111V279H154.912ZM161.696 279V268.091H163.748V269.824H163.862C164.061 269.237 164.411 268.775 164.913 268.439C165.42 268.098 165.993 267.928 166.632 267.928C166.764 267.928 166.921 267.932 167.101 267.942C167.285 267.951 167.43 267.963 167.534 267.977V270.009C167.449 269.985 167.297 269.959 167.079 269.93C166.861 269.897 166.644 269.881 166.426 269.881C165.924 269.881 165.477 269.987 165.084 270.2C164.695 270.409 164.388 270.7 164.16 271.074C163.933 271.443 163.819 271.865 163.819 272.338V279H161.696ZM173.695 279.22C172.672 279.22 171.779 278.986 171.017 278.517C170.255 278.048 169.663 277.393 169.241 276.55C168.82 275.707 168.609 274.722 168.609 273.595C168.609 272.464 168.82 271.474 169.241 270.626C169.663 269.779 170.255 269.121 171.017 268.652C171.779 268.183 172.672 267.949 173.695 267.949C174.717 267.949 175.61 268.183 176.372 268.652C177.134 269.121 177.726 269.779 178.148 270.626C178.569 271.474 178.78 272.464 178.78 273.595C178.78 274.722 178.569 275.707 178.148 276.55C177.726 277.393 177.134 278.048 176.372 278.517C175.61 278.986 174.717 279.22 173.695 279.22ZM173.702 277.438C174.364 277.438 174.914 277.262 175.349 276.912C175.785 276.562 176.107 276.095 176.315 275.513C176.528 274.93 176.635 274.289 176.635 273.588C176.635 272.892 176.528 272.253 176.315 271.67C176.107 271.083 175.785 270.612 175.349 270.257C174.914 269.902 174.364 269.724 173.702 269.724C173.034 269.724 172.48 269.902 172.04 270.257C171.604 270.612 171.28 271.083 171.067 271.67C170.858 272.253 170.754 272.892 170.754 273.588C170.754 274.289 170.858 274.93 171.067 275.513C171.28 276.095 171.604 276.562 172.04 276.912C172.48 277.262 173.034 277.438 173.702 277.438ZM181.269 279V268.091H183.307V269.866H183.442C183.669 269.265 184.041 268.796 184.557 268.46C185.073 268.119 185.691 267.949 186.411 267.949C187.14 267.949 187.751 268.119 188.243 268.46C188.74 268.801 189.107 269.27 189.344 269.866H189.457C189.718 269.284 190.132 268.82 190.7 268.474C191.269 268.124 191.946 267.949 192.732 267.949C193.721 267.949 194.528 268.259 195.153 268.879C195.783 269.5 196.098 270.435 196.098 271.685V279H193.974V271.884C193.974 271.145 193.773 270.61 193.371 270.278C192.968 269.947 192.488 269.781 191.929 269.781C191.238 269.781 190.7 269.994 190.317 270.42C189.933 270.842 189.742 271.384 189.742 272.047V279H187.625V271.749C187.625 271.157 187.44 270.681 187.071 270.321C186.702 269.961 186.221 269.781 185.629 269.781C185.227 269.781 184.855 269.888 184.514 270.101C184.178 270.309 183.906 270.6 183.698 270.974C183.494 271.348 183.392 271.782 183.392 272.274V279H181.269ZM206.598 272.523V279H204.474V264.455H206.569V269.866H206.704C206.96 269.279 207.351 268.813 207.876 268.467C208.402 268.122 209.088 267.949 209.936 267.949C210.684 267.949 211.337 268.103 211.896 268.411C212.459 268.718 212.895 269.178 213.203 269.788C213.515 270.394 213.672 271.152 213.672 272.061V279H211.548V272.317C211.548 271.517 211.342 270.896 210.93 270.456C210.518 270.011 209.945 269.788 209.211 269.788C208.709 269.788 208.26 269.895 207.862 270.108C207.469 270.321 207.159 270.634 206.932 271.045C206.709 271.453 206.598 271.945 206.598 272.523ZM221.325 279.22C220.251 279.22 219.325 278.991 218.549 278.531C217.777 278.067 217.18 277.416 216.759 276.578C216.342 275.735 216.134 274.748 216.134 273.616C216.134 272.499 216.342 271.514 216.759 270.662C217.18 269.81 217.767 269.144 218.52 268.666C219.278 268.188 220.163 267.949 221.176 267.949C221.792 267.949 222.388 268.051 222.966 268.254C223.544 268.458 224.062 268.777 224.522 269.213C224.981 269.649 225.343 270.214 225.608 270.911C225.873 271.602 226.006 272.442 226.006 273.432V274.185H217.334V272.594H223.925C223.925 272.035 223.811 271.54 223.584 271.109C223.357 270.674 223.037 270.33 222.625 270.08C222.218 269.829 221.74 269.703 221.191 269.703C220.594 269.703 220.073 269.85 219.628 270.143C219.188 270.432 218.847 270.811 218.605 271.28C218.369 271.744 218.25 272.248 218.25 272.793V274.036C218.25 274.765 218.378 275.385 218.634 275.896C218.894 276.408 219.256 276.798 219.72 277.068C220.184 277.333 220.727 277.466 221.347 277.466C221.749 277.466 222.116 277.409 222.448 277.295C222.779 277.177 223.066 277.002 223.307 276.77C223.549 276.538 223.733 276.251 223.861 275.911L225.871 276.273C225.71 276.865 225.421 277.383 225.004 277.828C224.593 278.268 224.074 278.612 223.449 278.858C222.829 279.099 222.121 279.22 221.325 279.22ZM228.481 279V268.091H230.533V269.824H230.647C230.846 269.237 231.196 268.775 231.698 268.439C232.204 268.098 232.777 267.928 233.417 267.928C233.549 267.928 233.705 267.932 233.885 267.942C234.07 267.951 234.214 267.963 234.319 267.977V270.009C234.233 269.985 234.082 269.959 233.864 269.93C233.646 269.897 233.428 269.881 233.211 269.881C232.709 269.881 232.261 269.987 231.868 270.2C231.48 270.409 231.172 270.7 230.945 271.074C230.718 271.443 230.604 271.865 230.604 272.338V279H228.481ZM240.586 279.22C239.511 279.22 238.585 278.991 237.809 278.531C237.037 278.067 236.44 277.416 236.019 276.578C235.602 275.735 235.394 274.748 235.394 273.616C235.394 272.499 235.602 271.514 236.019 270.662C236.44 269.81 237.028 269.144 237.78 268.666C238.538 268.188 239.423 267.949 240.437 267.949C241.052 267.949 241.649 268.051 242.226 268.254C242.804 268.458 243.323 268.777 243.782 269.213C244.241 269.649 244.603 270.214 244.868 270.911C245.134 271.602 245.266 272.442 245.266 273.432V274.185H236.594V272.594H243.185C243.185 272.035 243.072 271.54 242.844 271.109C242.617 270.674 242.297 270.33 241.885 270.08C241.478 269.829 241 269.703 240.451 269.703C239.854 269.703 239.333 269.85 238.888 270.143C238.448 270.432 238.107 270.811 237.866 271.28C237.629 271.744 237.51 272.248 237.51 272.793V274.036C237.51 274.765 237.638 275.385 237.894 275.896C238.154 276.408 238.517 276.798 238.981 277.068C239.445 277.333 239.987 277.466 240.607 277.466C241.01 277.466 241.376 277.409 241.708 277.295C242.039 277.177 242.326 277.002 242.567 276.77C242.809 276.538 242.993 276.251 243.121 275.911L245.131 276.273C244.97 276.865 244.681 277.383 244.265 277.828C243.853 278.268 243.334 278.612 242.709 278.858C242.089 279.099 241.381 279.22 240.586 279.22ZM254.551 279.135C254.163 279.135 253.829 278.998 253.55 278.723C253.271 278.444 253.131 278.107 253.131 277.714C253.131 277.326 253.271 276.995 253.55 276.72C253.829 276.441 254.163 276.301 254.551 276.301C254.94 276.301 255.273 276.441 255.553 276.72C255.832 276.995 255.972 277.326 255.972 277.714C255.972 277.975 255.905 278.214 255.773 278.432C255.645 278.645 255.475 278.815 255.262 278.943C255.048 279.071 254.812 279.135 254.551 279.135ZM260.334 279.135C259.946 279.135 259.612 278.998 259.332 278.723C259.053 278.444 258.913 278.107 258.913 277.714C258.913 277.326 259.053 276.995 259.332 276.72C259.612 276.441 259.946 276.301 260.334 276.301C260.722 276.301 261.056 276.441 261.335 276.72C261.615 276.995 261.754 277.326 261.754 277.714C261.754 277.975 261.688 278.214 261.555 278.432C261.428 278.645 261.257 278.815 261.044 278.943C260.831 279.071 260.594 279.135 260.334 279.135ZM266.116 279.135C265.728 279.135 265.394 278.998 265.115 278.723C264.836 278.444 264.696 278.107 264.696 277.714C264.696 277.326 264.836 276.995 265.115 276.72C265.394 276.441 265.728 276.301 266.116 276.301C266.505 276.301 266.838 276.441 267.118 276.72C267.397 276.995 267.537 277.326 267.537 277.714C267.537 277.975 267.47 278.214 267.338 278.432C267.21 278.645 267.04 278.815 266.827 278.943C266.613 279.071 266.377 279.135 266.116 279.135Z" fill="black"/>
<path d="M19.1903 305.182C19.1903 306.409 18.9687 307.47 18.5255 308.364C18.0823 309.258 17.4744 309.947 16.7016 310.432C15.9289 310.917 15.0463 311.159 14.0539 311.159C13.0615 311.159 12.1789 310.917 11.4062 310.432C10.6335 309.947 10.0255 309.258 9.58232 308.364C9.13913 307.47 8.91754 306.409 8.91754 305.182C8.91754 303.955 9.13913 302.894 9.58232 302C10.0255 301.106 10.6335 300.417 11.4062 299.932C12.1789 299.447 13.0615 299.205 14.0539 299.205C15.0463 299.205 15.9289 299.447 16.7016 299.932C17.4744 300.417 18.0823 301.106 18.5255 302C18.9687 302.894 19.1903 303.955 19.1903 305.182ZM17.8266 305.182C17.8266 304.174 17.6581 303.324 17.321 302.631C16.9876 301.938 16.535 301.413 15.963 301.057C15.3948 300.701 14.7585 300.523 14.0539 300.523C13.3494 300.523 12.7111 300.701 12.1391 301.057C11.571 301.413 11.1183 301.938 10.7812 302.631C10.4478 303.324 10.2812 304.174 10.2812 305.182C10.2812 306.189 10.4478 307.04 10.7812 307.733C11.1183 308.426 11.571 308.951 12.1391 309.307C12.7111 309.663 13.3494 309.841 14.0539 309.841C14.7585 309.841 15.3948 309.663 15.963 309.307C16.535 308.951 16.9876 308.426 17.321 307.733C17.6581 307.04 17.8266 306.189 17.8266 305.182ZM26.9962 307.432V302.273H28.3371V311H26.9962V309.523H26.9053C26.7007 309.966 26.3826 310.343 25.9507 310.653C25.5189 310.96 24.9735 311.114 24.3144 311.114C23.7689 311.114 23.2841 310.994 22.8598 310.756C22.4356 310.513 22.1023 310.15 21.8598 309.665C21.6174 309.176 21.4962 308.561 21.4962 307.818V302.273H22.8371V307.727C22.8371 308.364 23.0151 308.871 23.3712 309.25C23.731 309.629 24.1894 309.818 24.7462 309.818C25.0795 309.818 25.4185 309.733 25.7632 309.562C26.1117 309.392 26.4034 309.131 26.6382 308.778C26.8769 308.426 26.9962 307.977 26.9962 307.432ZM30.9115 311V302.273H32.2069V303.591H32.2979C32.4569 303.159 32.7448 302.809 33.1615 302.54C33.5782 302.271 34.0479 302.136 34.5706 302.136C34.6691 302.136 34.7922 302.138 34.9399 302.142C35.0876 302.146 35.1994 302.152 35.2751 302.159V303.523C35.2297 303.511 35.1255 303.494 34.9626 303.472C34.8035 303.445 34.635 303.432 34.4569 303.432C34.0327 303.432 33.6539 303.521 33.3206 303.699C32.991 303.873 32.7297 304.116 32.5365 304.426C32.3471 304.733 32.2524 305.083 32.2524 305.477V311H30.9115ZM41.6015 314.273V302.273H42.8969V303.659H43.056C43.1545 303.508 43.2908 303.314 43.4651 303.08C43.6431 302.841 43.8969 302.629 44.2265 302.443C44.5598 302.254 45.0105 302.159 45.5787 302.159C46.3136 302.159 46.9613 302.343 47.5219 302.71C48.0825 303.078 48.52 303.598 48.8344 304.273C49.1488 304.947 49.306 305.742 49.306 306.659C49.306 307.583 49.1488 308.384 48.8344 309.062C48.52 309.737 48.0844 310.259 47.5276 310.631C46.9708 310.998 46.3287 311.182 45.6015 311.182C45.0408 311.182 44.592 311.089 44.2549 310.903C43.9177 310.714 43.6583 310.5 43.4765 310.261C43.2946 310.019 43.1545 309.818 43.056 309.659H42.9424V314.273H41.6015ZM42.9196 306.636C42.9196 307.295 43.0162 307.877 43.2094 308.381C43.4026 308.881 43.6848 309.273 44.056 309.557C44.4272 309.837 44.8818 309.977 45.4196 309.977C45.9802 309.977 46.448 309.83 46.823 309.534C47.2018 309.235 47.4859 308.833 47.6753 308.33C47.8685 307.822 47.9651 307.258 47.9651 306.636C47.9651 306.023 47.8704 305.47 47.681 304.977C47.4954 304.481 47.2132 304.089 46.8344 303.801C46.4594 303.509 45.9878 303.364 45.4196 303.364C44.8742 303.364 44.4158 303.502 44.0446 303.778C43.6734 304.051 43.3931 304.434 43.2037 304.926C43.0143 305.415 42.9196 305.985 42.9196 306.636ZM52.8108 299.364V311H51.4699V299.364H52.8108ZM57.9534 311.205C57.4003 311.205 56.8984 311.1 56.4477 310.892C55.9969 310.68 55.639 310.375 55.3738 309.977C55.1087 309.576 54.9761 309.091 54.9761 308.523C54.9761 308.023 55.0746 307.617 55.2715 307.307C55.4685 306.992 55.7318 306.746 56.0613 306.568C56.3909 306.39 56.7545 306.258 57.1522 306.17C57.5537 306.08 57.9571 306.008 58.3624 305.955C58.8927 305.886 59.3227 305.835 59.6522 305.801C59.9855 305.763 60.228 305.701 60.3795 305.614C60.5348 305.527 60.6124 305.375 60.6124 305.159V305.114C60.6124 304.553 60.459 304.117 60.1522 303.807C59.8492 303.496 59.389 303.341 58.7715 303.341C58.1314 303.341 57.6295 303.481 57.2659 303.761C56.9022 304.042 56.6465 304.341 56.4988 304.659L55.2261 304.205C55.4534 303.674 55.7564 303.261 56.1352 302.966C56.5177 302.667 56.9344 302.458 57.3852 302.341C57.8397 302.22 58.2867 302.159 58.7261 302.159C59.0064 302.159 59.3284 302.193 59.692 302.261C60.0594 302.326 60.4136 302.46 60.7545 302.665C61.0992 302.869 61.3852 303.178 61.6124 303.591C61.8397 304.004 61.9534 304.557 61.9534 305.25V311H60.6124V309.818H60.5443C60.4534 310.008 60.3018 310.21 60.0897 310.426C59.8776 310.642 59.5954 310.826 59.2431 310.977C58.8909 311.129 58.4609 311.205 57.9534 311.205ZM58.1579 310C58.6882 310 59.1352 309.896 59.4988 309.688C59.8662 309.479 60.1427 309.21 60.3284 308.881C60.5177 308.551 60.6124 308.205 60.6124 307.841V306.614C60.5556 306.682 60.4306 306.744 60.2374 306.801C60.048 306.854 59.8284 306.902 59.5784 306.943C59.3321 306.981 59.0916 307.015 58.8568 307.045C58.6257 307.072 58.4382 307.095 58.2943 307.114C57.9458 307.159 57.62 307.233 57.317 307.335C57.0177 307.434 56.7753 307.583 56.5897 307.784C56.4079 307.981 56.317 308.25 56.317 308.591C56.317 309.057 56.4893 309.409 56.834 309.648C57.1825 309.883 57.6238 310 58.1579 310ZM68.3147 302.273V303.409H63.7919V302.273H68.3147ZM65.1101 300.182H66.451V308.5C66.451 308.879 66.506 309.163 66.6158 309.352C66.7294 309.538 66.8734 309.663 67.0476 309.727C67.2257 309.788 67.4132 309.818 67.6101 309.818C67.7579 309.818 67.8791 309.811 67.9738 309.795C68.0685 309.777 68.1442 309.761 68.201 309.75L68.4738 310.955C68.3829 310.989 68.256 311.023 68.0931 311.057C67.9302 311.095 67.7238 311.114 67.4738 311.114C67.095 311.114 66.7238 311.032 66.3601 310.869C66.0003 310.706 65.701 310.458 65.4624 310.125C65.2276 309.792 65.1101 309.371 65.1101 308.864V300.182ZM74.3365 302.273V303.409H69.632V302.273H74.3365ZM71.0411 311V301.068C71.0411 300.568 71.1585 300.152 71.3933 299.818C71.6282 299.485 71.9331 299.235 72.3081 299.068C72.6831 298.902 73.0789 298.818 73.4956 298.818C73.8251 298.818 74.0941 298.845 74.3024 298.898C74.5107 298.951 74.6661 299 74.7683 299.045L74.382 300.205C74.3138 300.182 74.2191 300.153 74.0979 300.119C73.9804 300.085 73.8251 300.068 73.632 300.068C73.1888 300.068 72.8687 300.18 72.6717 300.403C72.4786 300.627 72.382 300.955 72.382 301.386V311H71.0411ZM79.5203 311.182C78.7324 311.182 78.0411 310.994 77.4464 310.619C76.8555 310.244 76.3934 309.72 76.06 309.045C75.7305 308.371 75.5657 307.583 75.5657 306.682C75.5657 305.773 75.7305 304.979 76.06 304.301C76.3934 303.623 76.8555 303.097 77.4464 302.722C78.0411 302.347 78.7324 302.159 79.5203 302.159C80.3081 302.159 80.9975 302.347 81.5884 302.722C82.1831 303.097 82.6453 303.623 82.9748 304.301C83.3081 304.979 83.4748 305.773 83.4748 306.682C83.4748 307.583 83.3081 308.371 82.9748 309.045C82.6453 309.72 82.1831 310.244 81.5884 310.619C80.9975 310.994 80.3081 311.182 79.5203 311.182ZM79.5203 309.977C80.1187 309.977 80.6112 309.824 80.9975 309.517C81.3839 309.21 81.6699 308.807 81.8555 308.307C82.0411 307.807 82.1339 307.265 82.1339 306.682C82.1339 306.098 82.0411 305.555 81.8555 305.051C81.6699 304.547 81.3839 304.14 80.9975 303.83C80.6112 303.519 80.1187 303.364 79.5203 303.364C78.9218 303.364 78.4294 303.519 78.043 303.83C77.6566 304.14 77.3706 304.547 77.185 305.051C76.9994 305.555 76.9066 306.098 76.9066 306.682C76.9066 307.265 76.9994 307.807 77.185 308.307C77.3706 308.807 77.6566 309.21 78.043 309.517C78.4294 309.824 78.9218 309.977 79.5203 309.977ZM85.6401 311V302.273H86.9356V303.591H87.0265C87.1856 303.159 87.4734 302.809 87.8901 302.54C88.3068 302.271 88.7765 302.136 89.2992 302.136C89.3977 302.136 89.5208 302.138 89.6685 302.142C89.8162 302.146 89.928 302.152 90.0037 302.159V303.523C89.9583 303.511 89.8541 303.494 89.6912 303.472C89.5322 303.445 89.3636 303.432 89.1856 303.432C88.7613 303.432 88.3825 303.521 88.0492 303.699C87.7197 303.873 87.4583 304.116 87.2651 304.426C87.0757 304.733 86.981 305.083 86.981 305.477V311H85.6401ZM91.7117 311V302.273H93.0071V303.636H93.1207C93.3026 303.17 93.5961 302.809 94.0014 302.551C94.4067 302.29 94.8935 302.159 95.4617 302.159C96.0374 302.159 96.5166 302.29 96.8992 302.551C97.2855 302.809 97.5867 303.17 97.8026 303.636H97.8935C98.117 303.186 98.4522 302.828 98.8992 302.562C99.3461 302.294 99.8821 302.159 100.507 302.159C101.287 302.159 101.926 302.403 102.422 302.892C102.918 303.377 103.166 304.133 103.166 305.159V311H101.825V305.159C101.825 304.515 101.649 304.055 101.297 303.778C100.945 303.502 100.53 303.364 100.053 303.364C99.4389 303.364 98.9635 303.549 98.6264 303.92C98.2893 304.288 98.1207 304.754 98.1207 305.318V311H96.7571V305.023C96.7571 304.527 96.5961 304.127 96.2742 303.824C95.9522 303.517 95.5374 303.364 95.0298 303.364C94.6814 303.364 94.3556 303.456 94.0526 303.642C93.7533 303.828 93.5109 304.085 93.3253 304.415C93.1435 304.741 93.0526 305.117 93.0526 305.545V311H91.7117ZM113.65 311.182C112.923 311.182 112.281 310.998 111.724 310.631C111.167 310.259 110.732 309.737 110.417 309.062C110.103 308.384 109.946 307.583 109.946 306.659C109.946 305.742 110.103 304.947 110.417 304.273C110.732 303.598 111.169 303.078 111.73 302.71C112.29 302.343 112.938 302.159 113.673 302.159C114.241 302.159 114.69 302.254 115.02 302.443C115.353 302.629 115.607 302.841 115.781 303.08C115.959 303.314 116.097 303.508 116.196 303.659H116.309V299.364H117.65V311H116.355V309.659H116.196C116.097 309.818 115.957 310.019 115.775 310.261C115.593 310.5 115.334 310.714 114.997 310.903C114.66 311.089 114.211 311.182 113.65 311.182ZM113.832 309.977C114.37 309.977 114.824 309.837 115.196 309.557C115.567 309.273 115.849 308.881 116.042 308.381C116.235 307.877 116.332 307.295 116.332 306.636C116.332 305.985 116.237 305.415 116.048 304.926C115.859 304.434 115.578 304.051 115.207 303.778C114.836 303.502 114.377 303.364 113.832 303.364C113.264 303.364 112.79 303.509 112.412 303.801C112.037 304.089 111.754 304.481 111.565 304.977C111.379 305.47 111.287 306.023 111.287 306.636C111.287 307.258 111.381 307.822 111.571 308.33C111.764 308.833 112.048 309.235 112.423 309.534C112.802 309.83 113.271 309.977 113.832 309.977ZM120.411 311V302.273H121.706V303.591H121.797C121.956 303.159 122.244 302.809 122.661 302.54C123.077 302.271 123.547 302.136 124.07 302.136C124.168 302.136 124.291 302.138 124.439 302.142C124.587 302.146 124.699 302.152 124.774 302.159V303.523C124.729 303.511 124.625 303.494 124.462 303.472C124.303 303.445 124.134 303.432 123.956 303.432C123.532 303.432 123.153 303.521 122.82 303.699C122.49 303.873 122.229 304.116 122.036 304.426C121.846 304.733 121.752 305.083 121.752 305.477V311H120.411ZM126.482 311V302.273H127.823V311H126.482ZM127.164 300.818C126.903 300.818 126.677 300.729 126.488 300.551C126.302 300.373 126.209 300.159 126.209 299.909C126.209 299.659 126.302 299.445 126.488 299.267C126.677 299.089 126.903 299 127.164 299C127.425 299 127.649 299.089 127.834 299.267C128.024 299.445 128.119 299.659 128.119 299.909C128.119 300.159 128.024 300.373 127.834 300.551C127.649 300.729 127.425 300.818 127.164 300.818ZM137.534 302.273L134.307 311H132.943L129.716 302.273H131.17L133.579 309.227H133.67L136.079 302.273H137.534ZM142.769 311.182C141.928 311.182 141.202 310.996 140.593 310.625C139.987 310.25 139.519 309.727 139.189 309.057C138.863 308.383 138.701 307.598 138.701 306.705C138.701 305.811 138.863 305.023 139.189 304.341C139.519 303.655 139.977 303.121 140.564 302.739C141.155 302.352 141.845 302.159 142.632 302.159C143.087 302.159 143.536 302.235 143.979 302.386C144.422 302.538 144.826 302.784 145.189 303.125C145.553 303.462 145.843 303.909 146.059 304.466C146.274 305.023 146.382 305.708 146.382 306.523V307.091H139.655V305.932H145.019C145.019 305.439 144.92 305 144.723 304.614C144.53 304.227 144.254 303.922 143.894 303.699C143.538 303.475 143.117 303.364 142.632 303.364C142.098 303.364 141.636 303.496 141.246 303.761C140.86 304.023 140.562 304.364 140.354 304.784C140.146 305.205 140.041 305.655 140.041 306.136V306.909C140.041 307.568 140.155 308.127 140.382 308.585C140.613 309.04 140.934 309.386 141.343 309.625C141.752 309.86 142.227 309.977 142.769 309.977C143.121 309.977 143.439 309.928 143.723 309.83C144.011 309.727 144.259 309.576 144.468 309.375C144.676 309.17 144.837 308.917 144.951 308.614L146.246 308.977C146.11 309.417 145.881 309.803 145.559 310.136C145.237 310.466 144.839 310.723 144.365 310.909C143.892 311.091 143.36 311.182 142.769 311.182ZM154.722 304.227L153.518 304.568C153.442 304.367 153.33 304.172 153.183 303.983C153.039 303.79 152.842 303.631 152.592 303.506C152.342 303.381 152.022 303.318 151.632 303.318C151.097 303.318 150.652 303.441 150.296 303.688C149.944 303.93 149.768 304.239 149.768 304.614C149.768 304.947 149.889 305.21 150.132 305.403C150.374 305.597 150.753 305.758 151.268 305.886L152.563 306.205C153.344 306.394 153.925 306.684 154.308 307.074C154.69 307.46 154.882 307.958 154.882 308.568C154.882 309.068 154.738 309.515 154.45 309.909C154.166 310.303 153.768 310.614 153.257 310.841C152.745 311.068 152.15 311.182 151.472 311.182C150.582 311.182 149.846 310.989 149.262 310.602C148.679 310.216 148.31 309.652 148.154 308.909L149.427 308.591C149.548 309.061 149.777 309.413 150.114 309.648C150.455 309.883 150.9 310 151.45 310C152.075 310 152.571 309.867 152.938 309.602C153.31 309.333 153.495 309.011 153.495 308.636C153.495 308.333 153.389 308.08 153.177 307.875C152.965 307.667 152.639 307.511 152.2 307.409L150.745 307.068C149.946 306.879 149.359 306.585 148.984 306.188C148.613 305.786 148.427 305.284 148.427 304.682C148.427 304.189 148.565 303.754 148.842 303.375C149.122 302.996 149.503 302.699 149.984 302.483C150.469 302.267 151.018 302.159 151.632 302.159C152.495 302.159 153.173 302.348 153.666 302.727C154.162 303.106 154.514 303.606 154.722 304.227ZM161.637 311V302.273H162.978V311H161.637ZM162.319 300.818C162.057 300.818 161.832 300.729 161.643 300.551C161.457 300.373 161.364 300.159 161.364 299.909C161.364 299.659 161.457 299.445 161.643 299.267C161.832 299.089 162.057 299 162.319 299C162.58 299 162.803 299.089 162.989 299.267C163.178 299.445 163.273 299.659 163.273 299.909C163.273 300.159 163.178 300.373 162.989 300.551C162.803 300.729 162.58 300.818 162.319 300.818ZM166.893 305.75V311H165.552V302.273H166.848V303.636H166.961C167.166 303.193 167.476 302.837 167.893 302.568C168.31 302.295 168.848 302.159 169.507 302.159C170.098 302.159 170.615 302.28 171.058 302.523C171.501 302.761 171.846 303.125 172.092 303.614C172.338 304.098 172.461 304.712 172.461 305.455V311H171.12V305.545C171.12 304.86 170.942 304.326 170.586 303.943C170.23 303.557 169.742 303.364 169.12 303.364C168.692 303.364 168.31 303.456 167.973 303.642C167.639 303.828 167.376 304.098 167.183 304.455C166.99 304.811 166.893 305.242 166.893 305.75ZM176.371 305.75V311H175.03V302.273H176.325V303.636H176.439C176.644 303.193 176.954 302.837 177.371 302.568C177.787 302.295 178.325 302.159 178.984 302.159C179.575 302.159 180.092 302.28 180.536 302.523C180.979 302.761 181.323 303.125 181.57 303.614C181.816 304.098 181.939 304.712 181.939 305.455V311H180.598V305.545C180.598 304.86 180.42 304.326 180.064 303.943C179.708 303.557 179.219 303.364 178.598 303.364C178.17 303.364 177.787 303.456 177.45 303.642C177.117 303.828 176.854 304.098 176.661 304.455C176.467 304.811 176.371 305.242 176.371 305.75ZM188.053 311.182C187.265 311.182 186.574 310.994 185.979 310.619C185.388 310.244 184.926 309.72 184.593 309.045C184.263 308.371 184.099 307.583 184.099 306.682C184.099 305.773 184.263 304.979 184.593 304.301C184.926 303.623 185.388 303.097 185.979 302.722C186.574 302.347 187.265 302.159 188.053 302.159C188.841 302.159 189.53 302.347 190.121 302.722C190.716 303.097 191.178 303.623 191.508 304.301C191.841 304.979 192.008 305.773 192.008 306.682C192.008 307.583 191.841 308.371 191.508 309.045C191.178 309.72 190.716 310.244 190.121 310.619C189.53 310.994 188.841 311.182 188.053 311.182ZM188.053 309.977C188.652 309.977 189.144 309.824 189.53 309.517C189.917 309.21 190.203 308.807 190.388 308.307C190.574 307.807 190.667 307.265 190.667 306.682C190.667 306.098 190.574 305.555 190.388 305.051C190.203 304.547 189.917 304.14 189.53 303.83C189.144 303.519 188.652 303.364 188.053 303.364C187.455 303.364 186.962 303.519 186.576 303.83C186.19 304.14 185.904 304.547 185.718 305.051C185.532 305.555 185.44 306.098 185.44 306.682C185.44 307.265 185.532 307.807 185.718 308.307C185.904 308.807 186.19 309.21 186.576 309.517C186.962 309.824 187.455 309.977 188.053 309.977ZM200.997 302.273L197.77 311H196.406L193.179 302.273H194.633L197.042 309.227H197.133L199.542 302.273H200.997ZM205.188 311.205C204.635 311.205 204.133 311.1 203.682 310.892C203.231 310.68 202.873 310.375 202.608 309.977C202.343 309.576 202.21 309.091 202.21 308.523C202.21 308.023 202.309 307.617 202.506 307.307C202.703 306.992 202.966 306.746 203.296 306.568C203.625 306.39 203.989 306.258 204.387 306.17C204.788 306.08 205.192 306.008 205.597 305.955C206.127 305.886 206.557 305.835 206.887 305.801C207.22 305.763 207.462 305.701 207.614 305.614C207.769 305.527 207.847 305.375 207.847 305.159V305.114C207.847 304.553 207.693 304.117 207.387 303.807C207.084 303.496 206.623 303.341 206.006 303.341C205.366 303.341 204.864 303.481 204.5 303.761C204.137 304.042 203.881 304.341 203.733 304.659L202.46 304.205C202.688 303.674 202.991 303.261 203.37 302.966C203.752 302.667 204.169 302.458 204.62 302.341C205.074 302.22 205.521 302.159 205.96 302.159C206.241 302.159 206.563 302.193 206.926 302.261C207.294 302.326 207.648 302.46 207.989 302.665C208.334 302.869 208.62 303.178 208.847 303.591C209.074 304.004 209.188 304.557 209.188 305.25V311H207.847V309.818H207.779C207.688 310.008 207.536 310.21 207.324 310.426C207.112 310.642 206.83 310.826 206.478 310.977C206.125 311.129 205.695 311.205 205.188 311.205ZM205.392 310C205.923 310 206.37 309.896 206.733 309.688C207.101 309.479 207.377 309.21 207.563 308.881C207.752 308.551 207.847 308.205 207.847 307.841V306.614C207.79 306.682 207.665 306.744 207.472 306.801C207.282 306.854 207.063 306.902 206.813 306.943C206.567 306.981 206.326 307.015 206.091 307.045C205.86 307.072 205.673 307.095 205.529 307.114C205.18 307.159 204.854 307.233 204.551 307.335C204.252 307.434 204.01 307.583 203.824 307.784C203.642 307.981 203.551 308.25 203.551 308.591C203.551 309.057 203.724 309.409 204.068 309.648C204.417 309.883 204.858 310 205.392 310ZM215.549 302.273V303.409H211.026V302.273H215.549ZM212.345 300.182H213.685V308.5C213.685 308.879 213.74 309.163 213.85 309.352C213.964 309.538 214.108 309.663 214.282 309.727C214.46 309.788 214.648 309.818 214.845 309.818C214.992 309.818 215.113 309.811 215.208 309.795C215.303 309.777 215.379 309.761 215.435 309.75L215.708 310.955C215.617 310.989 215.49 311.023 215.327 311.057C215.165 311.095 214.958 311.114 214.708 311.114C214.329 311.114 213.958 311.032 213.595 310.869C213.235 310.706 212.935 310.458 212.697 310.125C212.462 309.792 212.345 309.371 212.345 308.864V300.182ZM217.685 311V302.273H219.025V311H217.685ZM218.366 300.818C218.105 300.818 217.88 300.729 217.69 300.551C217.505 300.373 217.412 300.159 217.412 299.909C217.412 299.659 217.505 299.445 217.69 299.267C217.88 299.089 218.105 299 218.366 299C218.628 299 218.851 299.089 219.037 299.267C219.226 299.445 219.321 299.659 219.321 299.909C219.321 300.159 219.226 300.373 219.037 300.551C218.851 300.729 218.628 300.818 218.366 300.818ZM225.145 311.182C224.357 311.182 223.666 310.994 223.071 310.619C222.48 310.244 222.018 309.72 221.685 309.045C221.355 308.371 221.191 307.583 221.191 306.682C221.191 305.773 221.355 304.979 221.685 304.301C222.018 303.623 222.48 303.097 223.071 302.722C223.666 302.347 224.357 302.159 225.145 302.159C225.933 302.159 226.623 302.347 227.213 302.722C227.808 303.097 228.27 303.623 228.6 304.301C228.933 304.979 229.1 305.773 229.1 306.682C229.1 307.583 228.933 308.371 228.6 309.045C228.27 309.72 227.808 310.244 227.213 310.619C226.623 310.994 225.933 311.182 225.145 311.182ZM225.145 309.977C225.744 309.977 226.236 309.824 226.623 309.517C227.009 309.21 227.295 308.807 227.48 308.307C227.666 307.807 227.759 307.265 227.759 306.682C227.759 306.098 227.666 305.555 227.48 305.051C227.295 304.547 227.009 304.14 226.623 303.83C226.236 303.519 225.744 303.364 225.145 303.364C224.547 303.364 224.054 303.519 223.668 303.83C223.282 304.14 222.996 304.547 222.81 305.051C222.624 305.555 222.532 306.098 222.532 306.682C222.532 307.265 222.624 307.807 222.81 308.307C222.996 308.807 223.282 309.21 223.668 309.517C224.054 309.824 224.547 309.977 225.145 309.977ZM232.606 305.75V311H231.265V302.273H232.561V303.636H232.674C232.879 303.193 233.189 302.837 233.606 302.568C234.023 302.295 234.561 302.159 235.22 302.159C235.811 302.159 236.328 302.28 236.771 302.523C237.214 302.761 237.559 303.125 237.805 303.614C238.051 304.098 238.174 304.712 238.174 305.455V311H236.833V305.545C236.833 304.86 236.655 304.326 236.299 303.943C235.943 303.557 235.454 303.364 234.833 303.364C234.405 303.364 234.023 303.456 233.686 303.642C233.352 303.828 233.089 304.098 232.896 304.455C232.703 304.811 232.606 305.242 232.606 305.75ZM247.339 311L244.68 302.273H246.089L247.975 308.955H248.066L249.93 302.273H251.361L253.202 308.932H253.293L255.18 302.273H256.589L253.93 311H252.611L250.702 304.295H250.566L248.657 311H247.339ZM258.48 311V302.273H259.821V311H258.48ZM259.162 300.818C258.9 300.818 258.675 300.729 258.485 300.551C258.3 300.373 258.207 300.159 258.207 299.909C258.207 299.659 258.3 299.445 258.485 299.267C258.675 299.089 258.9 299 259.162 299C259.423 299 259.646 299.089 259.832 299.267C260.021 299.445 260.116 299.659 260.116 299.909C260.116 300.159 260.021 300.373 259.832 300.551C259.646 300.729 259.423 300.818 259.162 300.818ZM266.191 302.273V303.409H261.668V302.273H266.191ZM262.986 300.182H264.327V308.5C264.327 308.879 264.382 309.163 264.492 309.352C264.605 309.538 264.749 309.663 264.923 309.727C265.101 309.788 265.289 309.818 265.486 309.818C265.634 309.818 265.755 309.811 265.85 309.795C265.944 309.777 266.02 309.761 266.077 309.75L266.35 310.955C266.259 310.989 266.132 311.023 265.969 311.057C265.806 311.095 265.6 311.114 265.35 311.114C264.971 311.114 264.6 311.032 264.236 310.869C263.876 310.706 263.577 310.458 263.338 310.125C263.103 309.792 262.986 309.371 262.986 308.864V300.182ZM269.854 305.75V311H268.513V299.364H269.854V303.636H269.968C270.173 303.186 270.479 302.828 270.888 302.562C271.301 302.294 271.851 302.159 272.536 302.159C273.131 302.159 273.652 302.278 274.099 302.517C274.546 302.752 274.892 303.114 275.138 303.602C275.388 304.087 275.513 304.705 275.513 305.455V311H274.173V305.545C274.173 304.852 273.993 304.316 273.633 303.938C273.277 303.555 272.782 303.364 272.15 303.364C271.71 303.364 271.316 303.456 270.968 303.642C270.623 303.828 270.351 304.098 270.15 304.455C269.953 304.811 269.854 305.242 269.854 305.75ZM286.499 302.273V303.409H281.976V302.273H286.499ZM283.294 300.182H284.635V308.5C284.635 308.879 284.69 309.163 284.8 309.352C284.914 309.538 285.058 309.663 285.232 309.727C285.41 309.788 285.597 309.818 285.794 309.818C285.942 309.818 286.063 309.811 286.158 309.795C286.253 309.777 286.328 309.761 286.385 309.75L286.658 310.955C286.567 310.989 286.44 311.023 286.277 311.057C286.114 311.095 285.908 311.114 285.658 311.114C285.279 311.114 284.908 311.032 284.544 310.869C284.184 310.706 283.885 310.458 283.647 310.125C283.412 309.792 283.294 309.371 283.294 308.864V300.182ZM292.086 311.182C291.298 311.182 290.607 310.994 290.012 310.619C289.421 310.244 288.959 309.72 288.626 309.045C288.296 308.371 288.132 307.583 288.132 306.682C288.132 305.773 288.296 304.979 288.626 304.301C288.959 303.623 289.421 303.097 290.012 302.722C290.607 302.347 291.298 302.159 292.086 302.159C292.874 302.159 293.563 302.347 294.154 302.722C294.749 303.097 295.211 303.623 295.541 304.301C295.874 304.979 296.041 305.773 296.041 306.682C296.041 307.583 295.874 308.371 295.541 309.045C295.211 309.72 294.749 310.244 294.154 310.619C293.563 310.994 292.874 311.182 292.086 311.182ZM292.086 309.977C292.685 309.977 293.177 309.824 293.563 309.517C293.95 309.21 294.236 308.807 294.421 308.307C294.607 307.807 294.7 307.265 294.7 306.682C294.7 306.098 294.607 305.555 294.421 305.051C294.236 304.547 293.95 304.14 293.563 303.83C293.177 303.519 292.685 303.364 292.086 303.364C291.488 303.364 290.995 303.519 290.609 303.83C290.222 304.14 289.936 304.547 289.751 305.051C289.565 305.555 289.472 306.098 289.472 306.682C289.472 307.265 289.565 307.807 289.751 308.307C289.936 308.807 290.222 309.21 290.609 309.517C290.995 309.824 291.488 309.977 292.086 309.977ZM301.751 311.182C300.963 311.182 300.272 310.994 299.678 310.619C299.087 310.244 298.624 309.72 298.291 309.045C297.962 308.371 297.797 307.583 297.797 306.682C297.797 305.773 297.962 304.979 298.291 304.301C298.624 303.623 299.087 303.097 299.678 302.722C300.272 302.347 300.963 302.159 301.751 302.159C302.539 302.159 303.229 302.347 303.82 302.722C304.414 303.097 304.876 303.623 305.206 304.301C305.539 304.979 305.706 305.773 305.706 306.682C305.706 307.583 305.539 308.371 305.206 309.045C304.876 309.72 304.414 310.244 303.82 310.619C303.229 310.994 302.539 311.182 301.751 311.182ZM301.751 309.977C302.35 309.977 302.842 309.824 303.229 309.517C303.615 309.21 303.901 308.807 304.087 308.307C304.272 307.807 304.365 307.265 304.365 306.682C304.365 306.098 304.272 305.555 304.087 305.051C303.901 304.547 303.615 304.14 303.229 303.83C302.842 303.519 302.35 303.364 301.751 303.364C301.153 303.364 300.66 303.519 300.274 303.83C299.888 304.14 299.602 304.547 299.416 305.051C299.231 305.555 299.138 306.098 299.138 306.682C299.138 307.265 299.231 307.807 299.416 308.307C299.602 308.807 299.888 309.21 300.274 309.517C300.66 309.824 301.153 309.977 301.751 309.977ZM309.212 299.364V311H307.871V299.364H309.212ZM317.968 304.227L316.764 304.568C316.688 304.367 316.576 304.172 316.429 303.983C316.285 303.79 316.088 303.631 315.838 303.506C315.588 303.381 315.268 303.318 314.877 303.318C314.343 303.318 313.898 303.441 313.542 303.688C313.19 303.93 313.014 304.239 313.014 304.614C313.014 304.947 313.135 305.21 313.377 305.403C313.62 305.597 313.999 305.758 314.514 305.886L315.809 306.205C316.59 306.394 317.171 306.684 317.554 307.074C317.936 307.46 318.127 307.958 318.127 308.568C318.127 309.068 317.983 309.515 317.696 309.909C317.411 310.303 317.014 310.614 316.502 310.841C315.991 311.068 315.396 311.182 314.718 311.182C313.828 311.182 313.091 310.989 312.508 310.602C311.925 310.216 311.555 309.652 311.4 308.909L312.673 308.591C312.794 309.061 313.023 309.413 313.36 309.648C313.701 309.883 314.146 310 314.696 310C315.321 310 315.817 309.867 316.184 309.602C316.555 309.333 316.741 309.011 316.741 308.636C316.741 308.333 316.635 308.08 316.423 307.875C316.211 307.667 315.885 307.511 315.446 307.409L313.991 307.068C313.192 306.879 312.605 306.585 312.23 306.188C311.858 305.786 311.673 305.284 311.673 304.682C311.673 304.189 311.811 303.754 312.088 303.375C312.368 302.996 312.749 302.699 313.23 302.483C313.715 302.267 314.264 302.159 314.877 302.159C315.741 302.159 316.419 302.348 316.911 302.727C317.408 303.106 317.76 303.606 317.968 304.227ZM56.3961 329.273V330.409H51.8734V329.273H56.3961ZM53.1915 327.182H54.5324V335.5C54.5324 335.879 54.5874 336.163 54.6972 336.352C54.8109 336.538 54.9548 336.663 55.129 336.727C55.3071 336.788 55.4946 336.818 55.6915 336.818C55.8393 336.818 55.9605 336.811 56.0552 336.795C56.1499 336.777 56.2256 336.761 56.2824 336.75L56.5552 337.955C56.4643 337.989 56.3374 338.023 56.1745 338.057C56.0116 338.095 55.8052 338.114 55.5552 338.114C55.1764 338.114 54.8052 338.032 54.4415 337.869C54.0817 337.706 53.7824 337.458 53.5438 337.125C53.309 336.792 53.1915 336.371 53.1915 335.864V327.182ZM60.06 332.75V338H58.719V326.364H60.06V330.636H60.1736C60.3781 330.186 60.685 329.828 61.094 329.562C61.5069 329.294 62.0562 329.159 62.7418 329.159C63.3365 329.159 63.8573 329.278 64.3043 329.517C64.7512 329.752 65.0978 330.114 65.344 330.602C65.594 331.087 65.719 331.705 65.719 332.455V338H64.3781V332.545C64.3781 331.852 64.1982 331.316 63.8384 330.938C63.4823 330.555 62.988 330.364 62.3554 330.364C61.916 330.364 61.5221 330.456 61.1736 330.642C60.8289 330.828 60.5562 331.098 60.3554 331.455C60.1584 331.811 60.06 332.242 60.06 332.75ZM70.8588 338.205C70.3057 338.205 69.8038 338.1 69.3531 337.892C68.9023 337.68 68.5444 337.375 68.2792 336.977C68.0141 336.576 67.8815 336.091 67.8815 335.523C67.8815 335.023 67.98 334.617 68.177 334.307C68.3739 333.992 68.6372 333.746 68.9667 333.568C69.2963 333.39 69.6599 333.258 70.0576 333.17C70.4591 333.08 70.8626 333.008 71.2679 332.955C71.7982 332.886 72.2281 332.835 72.5576 332.801C72.891 332.763 73.1334 332.701 73.2849 332.614C73.4402 332.527 73.5179 332.375 73.5179 332.159V332.114C73.5179 331.553 73.3645 331.117 73.0576 330.807C72.7546 330.496 72.2944 330.341 71.677 330.341C71.0368 330.341 70.5349 330.481 70.1713 330.761C69.8076 331.042 69.552 331.341 69.4042 331.659L68.1315 331.205C68.3588 330.674 68.6618 330.261 69.0406 329.966C69.4232 329.667 69.8398 329.458 70.2906 329.341C70.7451 329.22 71.1921 329.159 71.6315 329.159C71.9118 329.159 72.2338 329.193 72.5974 329.261C72.9648 329.326 73.319 329.46 73.6599 329.665C74.0046 329.869 74.2906 330.178 74.5179 330.591C74.7451 331.004 74.8588 331.557 74.8588 332.25V338H73.5179V336.818H73.4497C73.3588 337.008 73.2073 337.21 72.9951 337.426C72.783 337.642 72.5008 337.826 72.1485 337.977C71.7963 338.129 71.3663 338.205 70.8588 338.205ZM71.0633 337C71.5936 337 72.0406 336.896 72.4042 336.688C72.7716 336.479 73.0482 336.21 73.2338 335.881C73.4232 335.551 73.5179 335.205 73.5179 334.841V333.614C73.461 333.682 73.336 333.744 73.1429 333.801C72.9535 333.854 72.7338 333.902 72.4838 333.943C72.2376 333.981 71.997 334.015 71.7622 334.045C71.5311 334.072 71.3436 334.095 71.1997 334.114C70.8512 334.159 70.5254 334.233 70.2224 334.335C69.9232 334.434 69.6807 334.583 69.4951 334.784C69.3133 334.981 69.2224 335.25 69.2224 335.591C69.2224 336.057 69.3948 336.409 69.7395 336.648C70.0879 336.883 70.5292 337 71.0633 337ZM81.2201 329.273V330.409H76.6974V329.273H81.2201ZM78.0155 327.182H79.3565V335.5C79.3565 335.879 79.4114 336.163 79.5212 336.352C79.6349 336.538 79.7788 336.663 79.953 336.727C80.1311 336.788 80.3186 336.818 80.5155 336.818C80.6633 336.818 80.7845 336.811 80.8792 336.795C80.9739 336.777 81.0496 336.761 81.1065 336.75L81.3792 337.955C81.2883 337.989 81.1614 338.023 80.9985 338.057C80.8356 338.095 80.6292 338.114 80.3792 338.114C80.0004 338.114 79.6292 338.032 79.2655 337.869C78.9057 337.706 78.6065 337.458 78.3678 337.125C78.133 336.792 78.0155 336.371 78.0155 335.864V327.182ZM88.1558 338V326.364H89.4967V330.659H89.6103C89.7088 330.508 89.8452 330.314 90.0194 330.08C90.1975 329.841 90.4512 329.629 90.7808 329.443C91.1141 329.254 91.5649 329.159 92.1331 329.159C92.8679 329.159 93.5156 329.343 94.0762 329.71C94.6369 330.078 95.0744 330.598 95.3888 331.273C95.7031 331.947 95.8603 332.742 95.8603 333.659C95.8603 334.583 95.7031 335.384 95.3888 336.062C95.0744 336.737 94.6387 337.259 94.0819 337.631C93.5251 337.998 92.8831 338.182 92.1558 338.182C91.5952 338.182 91.1463 338.089 90.8092 337.903C90.4721 337.714 90.2126 337.5 90.0308 337.261C89.849 337.019 89.7088 336.818 89.6103 336.659H89.4512V338H88.1558ZM89.474 333.636C89.474 334.295 89.5706 334.877 89.7637 335.381C89.9569 335.881 90.2391 336.273 90.6103 336.557C90.9816 336.837 91.4361 336.977 91.974 336.977C92.5346 336.977 93.0024 336.83 93.3774 336.534C93.7562 336.235 94.0403 335.833 94.2297 335.33C94.4228 334.822 94.5194 334.258 94.5194 333.636C94.5194 333.023 94.4247 332.47 94.2353 331.977C94.0497 331.481 93.7675 331.089 93.3887 330.801C93.0137 330.509 92.5422 330.364 91.974 330.364C91.4285 330.364 90.9702 330.502 90.599 330.778C90.2278 331.051 89.9475 331.434 89.7581 331.926C89.5687 332.415 89.474 332.985 89.474 333.636ZM101.575 338.182C100.787 338.182 100.096 337.994 99.5015 337.619C98.9106 337.244 98.4485 336.72 98.1151 336.045C97.7856 335.371 97.6208 334.583 97.6208 333.682C97.6208 332.773 97.7856 331.979 98.1151 331.301C98.4485 330.623 98.9106 330.097 99.5015 329.722C100.096 329.347 100.787 329.159 101.575 329.159C102.363 329.159 103.053 329.347 103.644 329.722C104.238 330.097 104.7 330.623 105.03 331.301C105.363 331.979 105.53 332.773 105.53 333.682C105.53 334.583 105.363 335.371 105.03 336.045C104.7 336.72 104.238 337.244 103.644 337.619C103.053 337.994 102.363 338.182 101.575 338.182ZM101.575 336.977C102.174 336.977 102.666 336.824 103.053 336.517C103.439 336.21 103.725 335.807 103.911 335.307C104.096 334.807 104.189 334.265 104.189 333.682C104.189 333.098 104.096 332.555 103.911 332.051C103.725 331.547 103.439 331.14 103.053 330.83C102.666 330.519 102.174 330.364 101.575 330.364C100.977 330.364 100.484 330.519 100.098 330.83C99.7117 331.14 99.4257 331.547 99.2401 332.051C99.0545 332.555 98.9617 333.098 98.9617 333.682C98.9617 334.265 99.0545 334.807 99.2401 335.307C99.4257 335.807 99.7117 336.21 100.098 336.517C100.484 336.824 100.977 336.977 101.575 336.977ZM111.241 338.182C110.453 338.182 109.761 337.994 109.167 337.619C108.576 337.244 108.114 336.72 107.78 336.045C107.451 335.371 107.286 334.583 107.286 333.682C107.286 332.773 107.451 331.979 107.78 331.301C108.114 330.623 108.576 330.097 109.167 329.722C109.761 329.347 110.453 329.159 111.241 329.159C112.029 329.159 112.718 329.347 113.309 329.722C113.904 330.097 114.366 330.623 114.695 331.301C115.029 331.979 115.195 332.773 115.195 333.682C115.195 334.583 115.029 335.371 114.695 336.045C114.366 336.72 113.904 337.244 113.309 337.619C112.718 337.994 112.029 338.182 111.241 338.182ZM111.241 336.977C111.839 336.977 112.332 336.824 112.718 336.517C113.104 336.21 113.39 335.807 113.576 335.307C113.761 334.807 113.854 334.265 113.854 333.682C113.854 333.098 113.761 332.555 113.576 332.051C113.39 331.547 113.104 331.14 112.718 330.83C112.332 330.519 111.839 330.364 111.241 330.364C110.642 330.364 110.15 330.519 109.763 330.83C109.377 331.14 109.091 331.547 108.905 332.051C108.72 332.555 108.627 333.098 108.627 333.682C108.627 334.265 108.72 334.807 108.905 335.307C109.091 335.807 109.377 336.21 109.763 336.517C110.15 336.824 110.642 336.977 111.241 336.977ZM123.542 331.227L122.338 331.568C122.262 331.367 122.15 331.172 122.003 330.983C121.859 330.79 121.662 330.631 121.412 330.506C121.162 330.381 120.842 330.318 120.451 330.318C119.917 330.318 119.472 330.441 119.116 330.688C118.764 330.93 118.588 331.239 118.588 331.614C118.588 331.947 118.709 332.21 118.951 332.403C119.194 332.597 119.573 332.758 120.088 332.886L121.383 333.205C122.164 333.394 122.745 333.684 123.128 334.074C123.51 334.46 123.701 334.958 123.701 335.568C123.701 336.068 123.557 336.515 123.27 336.909C122.985 337.303 122.588 337.614 122.076 337.841C121.565 338.068 120.97 338.182 120.292 338.182C119.402 338.182 118.665 337.989 118.082 337.602C117.499 337.216 117.129 336.652 116.974 335.909L118.247 335.591C118.368 336.061 118.597 336.413 118.934 336.648C119.275 336.883 119.72 337 120.27 337C120.895 337 121.391 336.867 121.758 336.602C122.129 336.333 122.315 336.011 122.315 335.636C122.315 335.333 122.209 335.08 121.997 334.875C121.785 334.667 121.459 334.511 121.02 334.409L119.565 334.068C118.766 333.879 118.179 333.585 117.804 333.188C117.432 332.786 117.247 332.284 117.247 331.682C117.247 331.189 117.385 330.754 117.662 330.375C117.942 329.996 118.323 329.699 118.804 329.483C119.289 329.267 119.838 329.159 120.451 329.159C121.315 329.159 121.993 329.348 122.485 329.727C122.982 330.106 123.334 330.606 123.542 331.227ZM129.634 329.273V330.409H125.111V329.273H129.634ZM126.429 327.182H127.77V335.5C127.77 335.879 127.825 336.163 127.935 336.352C128.049 336.538 128.192 336.663 128.367 336.727C128.545 336.788 128.732 336.818 128.929 336.818C129.077 336.818 129.198 336.811 129.293 336.795C129.388 336.777 129.463 336.761 129.52 336.75L129.793 337.955C129.702 337.989 129.575 338.023 129.412 338.057C129.249 338.095 129.043 338.114 128.793 338.114C128.414 338.114 128.043 338.032 127.679 337.869C127.319 337.706 127.02 337.458 126.781 337.125C126.547 336.792 126.429 336.371 126.429 335.864V327.182ZM139.683 338.182C138.956 338.182 138.314 337.998 137.757 337.631C137.2 337.259 136.765 336.737 136.45 336.062C136.136 335.384 135.979 334.583 135.979 333.659C135.979 332.742 136.136 331.947 136.45 331.273C136.765 330.598 137.202 330.078 137.763 329.71C138.323 329.343 138.971 329.159 139.706 329.159C140.274 329.159 140.723 329.254 141.052 329.443C141.386 329.629 141.64 329.841 141.814 330.08C141.992 330.314 142.13 330.508 142.229 330.659H142.342V326.364H143.683V338H142.388V336.659H142.229C142.13 336.818 141.99 337.019 141.808 337.261C141.626 337.5 141.367 337.714 141.03 337.903C140.693 338.089 140.244 338.182 139.683 338.182ZM139.865 336.977C140.403 336.977 140.857 336.837 141.229 336.557C141.6 336.273 141.882 335.881 142.075 335.381C142.268 334.877 142.365 334.295 142.365 333.636C142.365 332.985 142.27 332.415 142.081 331.926C141.891 331.434 141.611 331.051 141.24 330.778C140.869 330.502 140.41 330.364 139.865 330.364C139.297 330.364 138.823 330.509 138.444 330.801C138.069 331.089 137.787 331.481 137.598 331.977C137.412 332.47 137.319 333.023 137.319 333.636C137.319 334.258 137.414 334.822 137.604 335.33C137.797 335.833 138.081 336.235 138.456 336.534C138.835 336.83 139.304 336.977 139.865 336.977ZM150.103 338.182C149.262 338.182 148.536 337.996 147.927 337.625C147.32 337.25 146.853 336.727 146.523 336.057C146.197 335.383 146.034 334.598 146.034 333.705C146.034 332.811 146.197 332.023 146.523 331.341C146.853 330.655 147.311 330.121 147.898 329.739C148.489 329.352 149.178 329.159 149.966 329.159C150.421 329.159 150.87 329.235 151.313 329.386C151.756 329.538 152.159 329.784 152.523 330.125C152.887 330.462 153.177 330.909 153.392 331.466C153.608 332.023 153.716 332.708 153.716 333.523V334.091H146.989V332.932H152.353C152.353 332.439 152.254 332 152.057 331.614C151.864 331.227 151.587 330.922 151.228 330.699C150.872 330.475 150.451 330.364 149.966 330.364C149.432 330.364 148.97 330.496 148.58 330.761C148.194 331.023 147.896 331.364 147.688 331.784C147.48 332.205 147.375 332.655 147.375 333.136V333.909C147.375 334.568 147.489 335.127 147.716 335.585C147.947 336.04 148.267 336.386 148.677 336.625C149.086 336.86 149.561 336.977 150.103 336.977C150.455 336.977 150.773 336.928 151.057 336.83C151.345 336.727 151.593 336.576 151.802 336.375C152.01 336.17 152.171 335.917 152.284 335.614L153.58 335.977C153.444 336.417 153.214 336.803 152.892 337.136C152.57 337.466 152.173 337.723 151.699 337.909C151.226 338.091 150.694 338.182 150.103 338.182ZM162.745 329.273L159.518 338H158.154L154.927 329.273H156.382L158.791 336.227H158.882L161.291 329.273H162.745ZM167.98 338.182C167.139 338.182 166.414 337.996 165.804 337.625C165.198 337.25 164.73 336.727 164.401 336.057C164.075 335.383 163.912 334.598 163.912 333.705C163.912 332.811 164.075 332.023 164.401 331.341C164.73 330.655 165.188 330.121 165.776 329.739C166.366 329.352 167.056 329.159 167.844 329.159C168.298 329.159 168.747 329.235 169.19 329.386C169.634 329.538 170.037 329.784 170.401 330.125C170.764 330.462 171.054 330.909 171.27 331.466C171.486 332.023 171.594 332.708 171.594 333.523V334.091H164.866V332.932H170.23C170.23 332.439 170.132 332 169.935 331.614C169.741 331.227 169.465 330.922 169.105 330.699C168.749 330.475 168.329 330.364 167.844 330.364C167.31 330.364 166.848 330.496 166.457 330.761C166.071 331.023 165.774 331.364 165.565 331.784C165.357 332.205 165.253 332.655 165.253 333.136V333.909C165.253 334.568 165.366 335.127 165.594 335.585C165.825 336.04 166.145 336.386 166.554 336.625C166.963 336.86 167.438 336.977 167.98 336.977C168.332 336.977 168.651 336.928 168.935 336.83C169.223 336.727 169.471 336.576 169.679 336.375C169.887 336.17 170.048 335.917 170.162 335.614L171.457 335.977C171.321 336.417 171.092 336.803 170.77 337.136C170.448 337.466 170.05 337.723 169.577 337.909C169.103 338.091 168.571 338.182 167.98 338.182ZM175.093 326.364V338H173.752V326.364H175.093ZM181.213 338.182C180.425 338.182 179.734 337.994 179.139 337.619C178.548 337.244 178.086 336.72 177.752 336.045C177.423 335.371 177.258 334.583 177.258 333.682C177.258 332.773 177.423 331.979 177.752 331.301C178.086 330.623 178.548 330.097 179.139 329.722C179.734 329.347 180.425 329.159 181.213 329.159C182.001 329.159 182.69 329.347 183.281 329.722C183.876 330.097 184.338 330.623 184.667 331.301C185.001 331.979 185.167 332.773 185.167 333.682C185.167 334.583 185.001 335.371 184.667 336.045C184.338 336.72 183.876 337.244 183.281 337.619C182.69 337.994 182.001 338.182 181.213 338.182ZM181.213 336.977C181.811 336.977 182.304 336.824 182.69 336.517C183.076 336.21 183.362 335.807 183.548 335.307C183.734 334.807 183.826 334.265 183.826 333.682C183.826 333.098 183.734 332.555 183.548 332.051C183.362 331.547 183.076 331.14 182.69 330.83C182.304 330.519 181.811 330.364 181.213 330.364C180.614 330.364 180.122 330.519 179.735 330.83C179.349 331.14 179.063 331.547 178.877 332.051C178.692 332.555 178.599 333.098 178.599 333.682C178.599 334.265 178.692 334.807 178.877 335.307C179.063 335.807 179.349 336.21 179.735 336.517C180.122 336.824 180.614 336.977 181.213 336.977ZM187.333 341.273V329.273H188.628V330.659H188.787C188.886 330.508 189.022 330.314 189.196 330.08C189.374 329.841 189.628 329.629 189.958 329.443C190.291 329.254 190.742 329.159 191.31 329.159C192.045 329.159 192.692 329.343 193.253 329.71C193.814 330.078 194.251 330.598 194.565 331.273C194.88 331.947 195.037 332.742 195.037 333.659C195.037 334.583 194.88 335.384 194.565 336.062C194.251 336.737 193.815 337.259 193.259 337.631C192.702 337.998 192.06 338.182 191.333 338.182C190.772 338.182 190.323 338.089 189.986 337.903C189.649 337.714 189.389 337.5 189.208 337.261C189.026 337.019 188.886 336.818 188.787 336.659H188.673V341.273H187.333ZM188.651 333.636C188.651 334.295 188.747 334.877 188.94 335.381C189.134 335.881 189.416 336.273 189.787 336.557C190.158 336.837 190.613 336.977 191.151 336.977C191.711 336.977 192.179 336.83 192.554 336.534C192.933 336.235 193.217 335.833 193.406 335.33C193.6 334.822 193.696 334.258 193.696 333.636C193.696 333.023 193.601 332.47 193.412 331.977C193.226 331.481 192.944 331.089 192.565 330.801C192.19 330.509 191.719 330.364 191.151 330.364C190.605 330.364 190.147 330.502 189.776 330.778C189.404 331.051 189.124 331.434 188.935 331.926C188.745 332.415 188.651 332.985 188.651 333.636ZM200.86 338.182C200.019 338.182 199.294 337.996 198.684 337.625C198.078 337.25 197.61 336.727 197.28 336.057C196.955 335.383 196.792 334.598 196.792 333.705C196.792 332.811 196.955 332.023 197.28 331.341C197.61 330.655 198.068 330.121 198.655 329.739C199.246 329.352 199.936 329.159 200.724 329.159C201.178 329.159 201.627 329.235 202.07 329.386C202.513 329.538 202.917 329.784 203.28 330.125C203.644 330.462 203.934 330.909 204.15 331.466C204.366 332.023 204.474 332.708 204.474 333.523V334.091H197.746V332.932H203.11C203.11 332.439 203.012 332 202.815 331.614C202.621 331.227 202.345 330.922 201.985 330.699C201.629 330.475 201.209 330.364 200.724 330.364C200.19 330.364 199.727 330.496 199.337 330.761C198.951 331.023 198.654 331.364 198.445 331.784C198.237 332.205 198.133 332.655 198.133 333.136V333.909C198.133 334.568 198.246 335.127 198.474 335.585C198.705 336.04 199.025 336.386 199.434 336.625C199.843 336.86 200.318 336.977 200.86 336.977C201.212 336.977 201.53 336.928 201.815 336.83C202.102 336.727 202.351 336.576 202.559 336.375C202.767 336.17 202.928 335.917 203.042 335.614L204.337 335.977C204.201 336.417 203.972 336.803 203.65 337.136C203.328 337.466 202.93 337.723 202.457 337.909C201.983 338.091 201.451 338.182 200.86 338.182ZM206.632 338V329.273H207.927V330.591H208.018C208.177 330.159 208.465 329.809 208.882 329.54C209.299 329.271 209.768 329.136 210.291 329.136C210.389 329.136 210.513 329.138 210.66 329.142C210.808 329.146 210.92 329.152 210.996 329.159V330.523C210.95 330.511 210.846 330.494 210.683 330.472C210.524 330.445 210.355 330.432 210.177 330.432C209.753 330.432 209.374 330.521 209.041 330.699C208.711 330.873 208.45 331.116 208.257 331.426C208.067 331.733 207.973 332.083 207.973 332.477V338H206.632ZM224.458 329.273L221.231 338H219.867L216.64 329.273H218.095L220.504 336.227H220.595L223.004 329.273H224.458ZM229.693 338.182C228.852 338.182 228.127 337.996 227.517 337.625C226.911 337.25 226.443 336.727 226.114 336.057C225.788 335.383 225.625 334.598 225.625 333.705C225.625 332.811 225.788 332.023 226.114 331.341C226.443 330.655 226.901 330.121 227.489 329.739C228.079 329.352 228.769 329.159 229.557 329.159C230.011 329.159 230.46 329.235 230.903 329.386C231.347 329.538 231.75 329.784 232.114 330.125C232.477 330.462 232.767 330.909 232.983 331.466C233.199 332.023 233.307 332.708 233.307 333.523V334.091H226.579V332.932H231.943C231.943 332.439 231.845 332 231.648 331.614C231.454 331.227 231.178 330.922 230.818 330.699C230.462 330.475 230.042 330.364 229.557 330.364C229.023 330.364 228.561 330.496 228.17 330.761C227.784 331.023 227.487 331.364 227.278 331.784C227.07 332.205 226.966 332.655 226.966 333.136V333.909C226.966 334.568 227.079 335.127 227.307 335.585C227.538 336.04 227.858 336.386 228.267 336.625C228.676 336.86 229.151 336.977 229.693 336.977C230.045 336.977 230.364 336.928 230.648 336.83C230.936 336.727 231.184 336.576 231.392 336.375C231.6 336.17 231.761 335.917 231.875 335.614L233.17 335.977C233.034 336.417 232.805 336.803 232.483 337.136C232.161 337.466 231.763 337.723 231.29 337.909C230.816 338.091 230.284 338.182 229.693 338.182ZM236.806 326.364V338H235.465V326.364H236.806ZM242.926 338.182C242.138 338.182 241.447 337.994 240.852 337.619C240.261 337.244 239.799 336.72 239.465 336.045C239.136 335.371 238.971 334.583 238.971 333.682C238.971 332.773 239.136 331.979 239.465 331.301C239.799 330.623 240.261 330.097 240.852 329.722C241.447 329.347 242.138 329.159 242.926 329.159C243.714 329.159 244.403 329.347 244.994 329.722C245.589 330.097 246.051 330.623 246.38 331.301C246.714 331.979 246.88 332.773 246.88 333.682C246.88 334.583 246.714 335.371 246.38 336.045C246.051 336.72 245.589 337.244 244.994 337.619C244.403 337.994 243.714 338.182 242.926 338.182ZM242.926 336.977C243.524 336.977 244.017 336.824 244.403 336.517C244.789 336.21 245.075 335.807 245.261 335.307C245.447 334.807 245.539 334.265 245.539 333.682C245.539 333.098 245.447 332.555 245.261 332.051C245.075 331.547 244.789 331.14 244.403 330.83C244.017 330.519 243.524 330.364 242.926 330.364C242.327 330.364 241.835 330.519 241.448 330.83C241.062 331.14 240.776 331.547 240.59 332.051C240.405 332.555 240.312 333.098 240.312 333.682C240.312 334.265 240.405 334.807 240.59 335.307C240.776 335.807 241.062 336.21 241.448 336.517C241.835 336.824 242.327 336.977 242.926 336.977ZM252.591 338.182C251.773 338.182 251.068 337.989 250.477 337.602C249.886 337.216 249.432 336.684 249.114 336.006C248.796 335.328 248.636 334.553 248.636 333.682C248.636 332.795 248.799 332.013 249.125 331.335C249.455 330.653 249.913 330.121 250.5 329.739C251.091 329.352 251.78 329.159 252.568 329.159C253.182 329.159 253.735 329.273 254.227 329.5C254.72 329.727 255.123 330.045 255.438 330.455C255.752 330.864 255.947 331.341 256.023 331.886H254.682C254.58 331.489 254.352 331.136 254 330.83C253.652 330.519 253.182 330.364 252.591 330.364C252.068 330.364 251.61 330.5 251.216 330.773C250.826 331.042 250.521 331.422 250.301 331.915C250.085 332.403 249.977 332.977 249.977 333.636C249.977 334.311 250.083 334.898 250.296 335.398C250.511 335.898 250.814 336.286 251.205 336.562C251.599 336.839 252.061 336.977 252.591 336.977C252.939 336.977 253.256 336.917 253.54 336.795C253.824 336.674 254.064 336.5 254.261 336.273C254.458 336.045 254.599 335.773 254.682 335.455H256.023C255.947 335.97 255.76 336.434 255.46 336.847C255.165 337.256 254.773 337.581 254.284 337.824C253.799 338.062 253.235 338.182 252.591 338.182ZM258.101 338V329.273H259.442V338H258.101ZM258.783 327.818C258.522 327.818 258.297 327.729 258.107 327.551C257.922 327.373 257.829 327.159 257.829 326.909C257.829 326.659 257.922 326.445 258.107 326.267C258.297 326.089 258.522 326 258.783 326C259.045 326 259.268 326.089 259.454 326.267C259.643 326.445 259.738 326.659 259.738 326.909C259.738 327.159 259.643 327.373 259.454 327.551C259.268 327.729 259.045 327.818 258.783 327.818ZM265.812 329.273V330.409H261.289V329.273H265.812ZM262.608 327.182H263.949V335.5C263.949 335.879 264.004 336.163 264.113 336.352C264.227 336.538 264.371 336.663 264.545 336.727C264.723 336.788 264.911 336.818 265.108 336.818C265.255 336.818 265.377 336.811 265.471 336.795C265.566 336.777 265.642 336.761 265.699 336.75L265.971 337.955C265.88 337.989 265.754 338.023 265.591 338.057C265.428 338.095 265.221 338.114 264.971 338.114C264.593 338.114 264.221 338.032 263.858 337.869C263.498 337.706 263.199 337.458 262.96 337.125C262.725 336.792 262.608 336.371 262.608 335.864V327.182ZM268.811 341.273C268.584 341.273 268.381 341.254 268.203 341.216C268.025 341.182 267.902 341.148 267.834 341.114L268.175 339.932C268.501 340.015 268.789 340.045 269.039 340.023C269.289 340 269.51 339.888 269.703 339.688C269.9 339.491 270.08 339.17 270.243 338.727L270.493 338.045L267.266 329.273H268.72L271.129 336.227H271.22L273.629 329.273H275.084L271.379 339.273C271.213 339.723 271.006 340.097 270.76 340.392C270.514 340.691 270.228 340.913 269.902 341.057C269.58 341.201 269.217 341.273 268.811 341.273Z" fill="#5F607E"/>
<defs>
<linearGradient id="paint0_linear_33_652" x1="128.437" y1="19.2482" x2="257.153" y2="220.112" gradientUnits="userSpaceOnUse">
<stop stop-color="#F6F5FE"/>
<stop offset="1" stop-color="#F6F5FE" stop-opacity="0"/>
</linearGradient>
</defs>
</svg>
