<svg width="14" height="16" viewBox="0 0 14 16" fill="none" xmlns="http://www.w3.org/2000/svg">
<path d="M2.55579 4.11111C2.55579 4.93623 2.88356 5.72755 3.46701 6.311C4.05046 6.89445 4.84178 7.22222 5.6669 7.22222C6.49202 7.22222 7.28334 6.89445 7.86679 6.311C8.45023 5.72755 8.77801 4.93623 8.77801 4.11111C8.77801 3.28599 8.45023 2.49467 7.86679 1.91122C7.28334 1.32778 6.49202 1 5.6669 1C4.84178 1 4.05046 1.32778 3.46701 1.91122C2.88356 2.49467 2.55579 3.28599 2.55579 4.11111Z" stroke="#23C37D" stroke-width="1.5" stroke-linecap="round" stroke-linejoin="round"/>
<path d="M1 15V13.4444C1 12.6193 1.32778 11.828 1.91122 11.2445C2.49467 10.6611 3.28599 10.3333 4.11111 10.3333H7.22222" stroke="#23C37D" stroke-width="1.5" stroke-linecap="round" stroke-linejoin="round"/>
<path d="M8 13.4444L9.55555 15L12.6667 11.8889" stroke="#23C37D" stroke-width="1.5" stroke-linecap="round" stroke-linejoin="round"/>
</svg>
